<?xml version="1.0" encoding="utf-8"?><svg xmlns="http://www.w3.org/2000/svg" xmlns:xlink="http://www.w3.org/1999/xlink"><symbol viewBox="0 0 512 512" id="ar" xmlns="http://www.w3.org/2000/svg"><path d="M492 236H68.442l70.164-69.824c7.829-7.792 7.859-20.455.067-28.284-7.792-7.83-20.456-7.859-28.285-.068l-104.504 104-.018.019c-7.809 7.792-7.834 20.496-.002 28.314l.018.019 104.504 104c7.828 7.79 20.492 7.763 28.285-.068 7.792-7.829 7.762-20.492-.067-28.284L68.442 276H492c11.046 0 20-8.954 20-20s-8.954-20-20-20z"/></symbol><symbol viewBox="0 0 408.576 408.576" id="ok" xmlns="http://www.w3.org/2000/svg"><path d="M204.288 0C91.648 0 0 91.648 0 204.288s91.648 204.288 204.288 204.288 204.288-91.648 204.288-204.288S316.928 0 204.288 0zm114.176 150.528l-130.56 129.536c-7.68 7.68-19.968 8.192-28.16.512L90.624 217.6c-8.192-7.68-8.704-20.48-1.536-28.672 7.68-8.192 20.48-8.704 28.672-1.024l54.784 50.176L289.28 121.344c8.192-8.192 20.992-8.192 29.184 0s8.192 20.992 0 29.184z"/></symbol><symbol viewBox="0 0 436.38 436.38" id="tag" xmlns="http://www.w3.org/2000/svg"><path d="M340.38 23.224H206.396a32.01 32.01 0 00-22.624 9.376L9.372 206.968c-12.496 12.496-12.496 32.752 0 45.264l133.984 133.984c12.496 12.496 32.752 12.496 45.248 0l174.4-174.368c6-6.016 9.376-14.16 9.376-22.656V55.224c0-17.68-14.32-32-32-32zm-56 112c-13.248 0-24-10.752-24-24s10.752-24 24-24 24 10.752 24 24-10.752 24-24 24z"/><path d="M404.38 55.224l-.016 148.944a27.79 27.79 0 01-8.16 19.68L218.988 401.064l2.72 2.72c12.496 12.496 32.752 12.496 45.248 0l160.032-160a31.959 31.959 0 009.392-22.624V87.224c0-17.68-14.32-32-32-32z"/></symbol></svg>