<?xml version="1.0" encoding="utf-8"?><svg xmlns="http://www.w3.org/2000/svg" xmlns:xlink="http://www.w3.org/1999/xlink"><symbol viewBox="0 0 32 32" id="next" xmlns="http://www.w3.org/2000/svg"><path d="M24.89 14.751L10.648.511A1.738 1.738 0 009.411 0c-.469 0-.908.182-1.238.511L7.125 1.56a1.753 1.753 0 000 2.475l11.958 11.958L7.11 27.965a1.74 1.74 0 00-.51 1.237c0 .47.181.909.51 1.239l1.05 1.048c.329.33.768.511 1.237.511.469 0 .908-.182 1.238-.511l14.253-14.253c.33-.331.512-.773.51-1.242a1.739 1.739 0 00-.51-1.243z"/></symbol><symbol viewBox="0 0 32 32" id="prev" xmlns="http://www.w3.org/2000/svg"><g clip-path="url(#bclip0)"><path d="M7.11 17.249l14.241 14.24c.33.33.769.511 1.238.511s.908-.182 1.238-.511l1.048-1.049a1.753 1.753 0 000-2.475L12.917 16.007 24.89 4.035c.329-.33.51-.769.51-1.237 0-.47-.181-.909-.51-1.239L23.84.511C23.51.181 23.07 0 22.602 0c-.469 0-.908.182-1.238.511L7.111 14.764a1.74 1.74 0 00-.51 1.242c-.002.471.18.912.51 1.243z"/></g><defs><clipPath id="bclip0"><path transform="rotate(-180 32 32)" d="M32 32h32v32H32z"/></clipPath></defs></symbol></svg>