<?xml version="1.0" encoding="utf-8"?><svg xmlns="http://www.w3.org/2000/svg" xmlns:xlink="http://www.w3.org/1999/xlink"><symbol viewBox="0 0 384 384" id="call" xmlns="http://www.w3.org/2000/svg"><path d="M353.188 252.052c-23.51 0-46.594-3.677-68.469-10.906-10.719-3.656-23.896-.302-30.438 6.417l-43.177 32.594c-50.073-26.729-80.917-57.563-107.281-107.26l31.635-42.052c8.219-8.208 11.167-20.198 7.635-31.448-7.26-21.99-10.948-45.063-10.948-68.583C132.146 13.823 118.323 0 101.333 0h-70.52C13.823 0 0 13.823 0 30.813 0 225.563 158.438 384 353.188 384c16.99 0 30.813-13.823 30.813-30.813v-70.323c-.001-16.989-13.824-30.812-30.813-30.812z"/></symbol><symbol viewBox="0 0 443.294 443.294" id="clock" xmlns="http://www.w3.org/2000/svg"><path d="M221.647 0C99.433 0 0 99.433 0 221.647s99.433 221.647 221.647 221.647 221.647-99.433 221.647-221.647S343.861 0 221.647 0zm0 415.588c-106.941 0-193.941-87-193.941-193.941s87-193.941 193.941-193.941 193.941 87 193.941 193.941-87 193.941-193.941 193.941z"/><path d="M235.5 83.118h-27.706v144.265l87.176 87.176 19.589-19.589-79.059-79.059z"/></symbol><symbol viewBox="0 0 512 512" id="cube" xmlns="http://www.w3.org/2000/svg"><path d="M511.083 100.779c-.171-.597-.427-1.152-.661-1.728a19.114 19.114 0 00-1.792-3.627 15.628 15.628 0 00-1.152-1.685c-.832-1.088-1.771-2.048-2.795-2.944-.469-.427-.896-.875-1.387-1.259-.149-.107-.256-.235-.405-.341-1.493-1.045-3.093-1.856-4.757-2.496-.064-.021-.107-.064-.171-.085L263.296 1.28a21.43 21.43 0 00-14.592 0L14.037 86.613c-.064.021-.107.064-.171.085-1.664.64-3.264 1.451-4.757 2.496-.149.107-.256.235-.405.341-.491.384-.917.832-1.387 1.259-1.024.896-1.963 1.856-2.795 2.944a15.628 15.628 0 00-1.152 1.685 19.114 19.114 0 00-1.792 3.627c-.235.576-.491 1.131-.661 1.728C.363 102.677 0 104.64 0 106.667v298.667c0 8.96 5.611 16.981 14.037 20.053l234.667 85.333c.149.043.32.021.469.085 2.219.747 4.501 1.195 6.827 1.195s4.608-.448 6.827-1.195c.149-.064.32-.043.469-.085l234.667-85.333A21.355 21.355 0 00512 405.334V106.667c0-2.027-.363-3.99-.917-5.888zM256 169.301L83.755 106.667 256 44.032l172.245 62.635L256 169.301zM469.333 390.4l-192 69.803v-253.27l192-69.803V390.4z"/></symbol><symbol viewBox="0 0 512.003 512.003" id="dis" xmlns="http://www.w3.org/2000/svg"><path d="M477.958 262.633a15.004 15.004 0 010-13.263l19.096-39.065c10.632-21.751 2.208-47.676-19.178-59.023l-38.41-20.38a15.005 15.005 0 01-7.796-10.729l-7.512-42.829c-4.183-23.846-26.241-39.87-50.208-36.479l-43.053 6.09a15.004 15.004 0 01-12.613-4.099l-31.251-30.232c-17.401-16.834-44.661-16.835-62.061 0L193.72 42.859a15.01 15.01 0 01-12.613 4.099l-43.053-6.09c-23.975-3.393-46.025 12.633-50.208 36.479l-7.512 42.827a15.008 15.008 0 01-7.795 10.73l-38.41 20.38c-21.386 11.346-29.81 37.273-19.178 59.024l19.095 39.064a15.004 15.004 0 010 13.263L14.95 301.699c-10.632 21.751-2.208 47.676 19.178 59.023l38.41 20.38a15.005 15.005 0 017.796 10.729l7.512 42.829c3.808 21.708 22.422 36.932 43.815 36.93 2.107 0 4.245-.148 6.394-.452l43.053-6.09a15 15 0 0112.613 4.099l31.251 30.232c8.702 8.418 19.864 12.626 31.03 12.625 11.163-.001 22.332-4.209 31.03-12.625l31.252-30.232c3.372-3.261 7.968-4.751 12.613-4.099l43.053 6.09c23.978 3.392 46.025-12.633 50.208-36.479l7.513-42.827a15.008 15.008 0 017.795-10.73l38.41-20.38c21.386-11.346 29.81-37.273 19.178-59.024l-19.096-39.065zm-13.923 72.002l-38.41 20.38c-12.246 6.499-20.645 18.057-23.04 31.713l-7.512 42.828a15.038 15.038 0 01-16.987 12.342l-43.053-6.09c-13.73-1.945-27.316 2.474-37.281 12.113L266.5 478.152a15.04 15.04 0 01-20.997 0l-31.251-30.232c-8.422-8.147-19.432-12.562-30.926-12.562-2.106 0-4.229.148-6.355.449l-43.053 6.09a15.042 15.042 0 01-16.987-12.342l-7.513-42.829c-2.396-13.656-10.794-25.215-23.041-31.712l-38.41-20.38a15.037 15.037 0 01-6.489-19.969L60.574 275.6c6.088-12.456 6.088-26.742 0-39.198l-19.096-39.065a15.037 15.037 0 016.489-19.969l38.41-20.38c12.246-6.499 20.645-18.057 23.04-31.713l7.512-42.828a15.038 15.038 0 0116.987-12.342l43.053 6.09c13.725 1.943 27.316-2.474 37.281-12.113l31.252-30.232a15.04 15.04 0 0120.997 0l31.251 30.232c9.965 9.64 23.554 14.056 37.281 12.113l43.053-6.09a15.04 15.04 0 0116.987 12.342l7.512 42.829c2.396 13.656 10.794 25.215 23.041 31.712l38.41 20.38a15.037 15.037 0 016.489 19.969l-19.096 39.064c-6.088 12.455-6.088 26.743 0 39.198l19.096 39.064a15.039 15.039 0 01-6.488 19.972z"/><path d="M363.886 148.116c-5.765-5.766-15.115-5.766-20.881 0l-194.889 194.89c-5.766 5.766-5.766 15.115 0 20.881a14.72 14.72 0 0010.44 4.325c3.778 0 7.558-1.441 10.44-4.325l194.889-194.889c5.768-5.767 5.768-15.115.001-20.882zm-166.945-25c-29.852 0-54.139 24.287-54.139 54.139s24.287 54.139 54.139 54.139 54.139-24.287 54.139-54.139-24.287-54.139-54.139-54.139zm0 78.747c-13.569 0-24.608-11.039-24.608-24.609 0-13.569 11.039-24.608 24.608-24.608s24.609 11.039 24.609 24.608c-.001 13.57-11.04 24.609-24.609 24.609zm118.12 78.747c-29.852 0-54.139 24.287-54.139 54.139s24.287 54.139 54.139 54.139c29.852 0 54.139-24.287 54.139-54.139s-24.287-54.139-54.139-54.139zm0 78.747c-13.569 0-24.609-11.039-24.609-24.608s11.039-24.608 24.609-24.608c13.569 0 24.608 11.039 24.608 24.608s-11.039 24.608-24.608 24.608z"/></symbol><symbol viewBox="0 0 512 512" id="f" xmlns="http://www.w3.org/2000/svg"><path d="M288 176v-64c0-17.664 14.336-32 32-32h32V0h-64c-53.024 0-96 42.976-96 96v80h-64v80h64v256h96V256h64l32-80h-96z"/></symbol><symbol viewBox="0 0 24 24" id="in" xmlns="http://www.w3.org/2000/svg"><path d="M23.994 24v-.001H24v-8.802c0-4.306-.927-7.623-5.961-7.623-2.42 0-4.044 1.328-4.707 2.587h-.07V7.976H8.489v16.023h4.97v-7.934c0-2.089.396-4.109 2.983-4.109 2.549 0 2.587 2.384 2.587 4.243V24zM.396 7.977h4.976V24H.396zM2.882 0C1.291 0 0 1.291 0 2.882s1.291 2.909 2.882 2.909 2.882-1.318 2.882-2.909A2.884 2.884 0 002.882 0z"/></symbol><symbol viewBox="0 0 512 512" id="insta" xmlns="http://www.w3.org/2000/svg"><path d="M352 0H160C71.648 0 0 71.648 0 160v192c0 88.352 71.648 160 160 160h192c88.352 0 160-71.648 160-160V160C512 71.648 440.352 0 352 0zm112 352c0 61.76-50.24 112-112 112H160c-61.76 0-112-50.24-112-112V160C48 98.24 98.24 48 160 48h192c61.76 0 112 50.24 112 112v192z"/><path d="M256 128c-70.688 0-128 57.312-128 128s57.312 128 128 128 128-57.312 128-128-57.312-128-128-128zm0 208c-44.096 0-80-35.904-80-80 0-44.128 35.904-80 80-80s80 35.872 80 80c0 44.096-35.904 80-80 80z"/><circle cx="393.6" cy="118.4" r="17.056"/></symbol><symbol viewBox="0 0 512 512" id="loc" xmlns="http://www.w3.org/2000/svg"><path d="M256 0C161.896 0 85.333 76.563 85.333 170.667c0 28.25 7.063 56.26 20.49 81.104L246.667 506.5c1.875 3.396 5.448 5.5 9.333 5.5s7.458-2.104 9.333-5.5l140.896-254.813c13.375-24.76 20.438-52.771 20.438-81.021C426.667 76.563 350.104 0 256 0zm0 256c-47.052 0-85.333-38.281-85.333-85.333S208.948 85.334 256 85.334s85.333 38.281 85.333 85.333S303.052 256 256 256z"/></symbol><symbol viewBox="0 0 512 512" id="mail" xmlns="http://www.w3.org/2000/svg"><path d="M467 61H45C20.218 61 0 81.196 0 106v300c0 24.72 20.128 45 45 45h422c24.72 0 45-20.128 45-45V106c0-24.72-20.128-45-45-45zm-6.214 30L256.954 294.833 51.359 91h409.427zM30 399.788V112.069l144.479 143.24L30 399.788zM51.213 421l144.57-144.57 50.657 50.222c5.864 5.814 15.327 5.795 21.167-.046L317 277.213 460.787 421H51.213zM482 399.787L338.213 256 482 112.212v287.575z"/></symbol><symbol viewBox="-62 0 512 512" id="pi" xmlns="http://www.w3.org/2000/svg"><path d="M60.945 278.219c.64-1.598 7.051-26.23 7.5-27.899-10.007-15.058-21.125-64.37-12.597-104.398 9.199-58.73 71.437-87.602 130.199-87.602v-.11c73.57.048 128.64 40.981 128.7 111.477.046 55.18-33.196 128.118-89.958 128.118h-.043c-20.258 0-45.906-9.188-52.633-18.211-7.761-10.399-9.668-23.23-5.566-36.942 10.05-32.082 22.867-70.511 24.363-96.136 1.387-24.184-15.773-39.918-38.027-39.918-16.746 0-38.496 9.726-49.336 37.058-8.953 22.707-8.762 46.48.586 72.672 3.644 10.238-16.156 76.984-22.5 98.719-15.762 53.992-37.34 122.305-32.727 160.348L53.36 512l22.368-29.313c30.953-40.519 62.957-145.332 71.484-170.835 25.21 32.648 77.71 33.586 83.832 33.586 75.184 0 160.437-74.657 158.02-178.563C386.94 75.754 320.252 0 200.43 0v.117C86.453.117 19.93 60.953 3.645 137.82c-14.915 71.274 18.253 125.52 57.3 140.399zm0 0"/></symbol><symbol viewBox="0 0 512 512" id="return" xmlns="http://www.w3.org/2000/svg"><path d="M511.563 434.259c-1.728-142.329-124.42-258.242-277.087-263.419V95.999c0-17.645-14.342-31.999-31.974-31.999-7.931 0-15.591 3.042-21.524 8.562 0 0-134.828 124.829-173.609 163.755C2.623 241.109 0 248.088 0 255.994c0 7.906 2.623 14.885 7.369 19.687 38.781 38.915 173.609 163.745 173.609 163.745 5.933 5.521 13.593 8.562 21.524 8.562 17.631 0 31.974-14.354 31.974-31.999v-74.591c153.479 2.156 255.792 50.603 255.792 95.924 0 5.896 4.767 10.666 10.658 10.666.167.021.333.01.416 0 5.891 0 10.658-4.771 10.658-10.666 0-1.063-.146-2.094-.437-3.063z"/></symbol><symbol viewBox="0 0 512 512" id="twit" xmlns="http://www.w3.org/2000/svg"><path d="M512 97.248c-19.04 8.352-39.328 13.888-60.48 16.576 21.76-12.992 38.368-33.408 46.176-58.016-20.288 12.096-42.688 20.64-66.56 25.408C411.872 60.704 384.416 48 354.464 48c-58.112 0-104.896 47.168-104.896 104.992 0 8.32.704 16.32 2.432 23.936-87.264-4.256-164.48-46.08-216.352-109.792-9.056 15.712-14.368 33.696-14.368 53.056 0 36.352 18.72 68.576 46.624 87.232-16.864-.32-33.408-5.216-47.424-12.928v1.152c0 51.008 36.384 93.376 84.096 103.136-8.544 2.336-17.856 3.456-27.52 3.456-6.72 0-13.504-.384-19.872-1.792 13.6 41.568 52.192 72.128 98.08 73.12-35.712 27.936-81.056 44.768-130.144 44.768-8.608 0-16.864-.384-25.12-1.44C46.496 446.88 101.6 464 161.024 464c193.152 0 298.752-160 298.752-298.688 0-4.64-.16-9.12-.384-13.568 20.832-14.784 38.336-33.248 52.608-54.496z"/></symbol><symbol viewBox="0 0 511.997 511.997" id="up" xmlns="http://www.w3.org/2000/svg"><path d="M508.707 365.621L263.374 130.954c-4.125-3.938-10.625-3.938-14.75 0L3.29 365.621a10.66 10.66 0 00-2.521 11.677 10.649 10.649 0 009.896 6.698h42.667c2.729 0 5.354-1.042 7.333-2.927l195.333-185.042 195.333 185.042a10.623 10.623 0 007.333 2.927h42.667c4.354 0 8.281-2.646 9.896-6.698a10.658 10.658 0 00-2.52-11.677z"/></symbol></svg>