<?xml version="1.0" encoding="utf-8"?><svg xmlns="http://www.w3.org/2000/svg" xmlns:xlink="http://www.w3.org/1999/xlink"><symbol viewBox="0 0 16 11" id="arrow-right" xmlns="http://www.w3.org/2000/svg"><path d="M1.158 6.195h12.134l-2.896 2.93a.662.662 0 0 0 0 .928.644.644 0 0 0 .918 0l4.004-4.05a.662.662 0 0 0 0-.929l-4.003-4.05a.643.643 0 0 0-.919 0 .662.662 0 0 0 0 .929l2.896 2.929H1.158a.653.653 0 0 0-.65.657c0 .362.291.656.65.656z"/></symbol><symbol viewBox="0 0 408.788 408.788" id="face" xmlns="http://www.w3.org/2000/svg"><path d="M353.701 0H55.087C24.665 0 .002 24.662.002 55.085v298.616c0 30.423 24.662 55.085 55.085 55.085h147.275l.251-146.078h-37.951a8.954 8.954 0 0 1-8.954-8.92l-.182-47.087a8.955 8.955 0 0 1 8.955-8.989h37.882v-45.498c0-52.8 32.247-81.55 79.348-81.55h38.65a8.955 8.955 0 0 1 8.955 8.955v39.704a8.955 8.955 0 0 1-8.95 8.955l-23.719.011c-25.615 0-30.575 12.172-30.575 30.035v39.389h56.285c5.363 0 9.524 4.683 8.892 10.009l-5.581 47.087a8.955 8.955 0 0 1-8.892 7.901h-50.453l-.251 146.078h87.631c30.422 0 55.084-24.662 55.084-55.084V55.085C408.786 24.662 384.124 0 353.701 0z"/></symbol><symbol viewBox="0 0 458.246 458.246" id="google" xmlns="http://www.w3.org/2000/svg"><path d="M160.777 259.368h71.594c-12.567 35.53-46.603 61.004-86.45 60.71-48.349-.357-88.327-39.035-90.204-87.349-2.012-51.789 39.537-94.563 90.887-94.563 23.479 0 44.905 8.946 61.058 23.605 3.826 3.473 9.65 3.495 13.413-.047l26.296-24.749c4.112-3.871 4.127-10.408.027-14.292-25.617-24.269-59.981-39.396-97.876-40.136C68.696 80.969.567 147.238.004 228.078c-.568 81.447 65.285 147.649 146.6 147.649 78.199 0 142.081-61.229 146.36-138.358.114-.967.189-33.648.189-33.648H160.777c-5.426 0-9.824 4.398-9.824 9.824v35.999c0 5.426 4.399 9.824 9.824 9.824zm253.687-52.378v-35.173a8.609 8.609 0 0 0-8.609-8.609h-29.604a8.609 8.609 0 0 0-8.609 8.609v35.173h-35.173a8.609 8.609 0 0 0-8.609 8.609v29.604a8.609 8.609 0 0 0 8.609 8.609h35.173v35.173a8.609 8.609 0 0 0 8.609 8.609h29.604a8.609 8.609 0 0 0 8.609-8.609v-35.173h35.173a8.609 8.609 0 0 0 8.609-8.609v-29.604a8.609 8.609 0 0 0-8.609-8.609h-35.173z"/></symbol><symbol viewBox="0 0 551.034 551.034" id="inst" xmlns="http://www.w3.org/2000/svg"><path d="M386.878 0H164.156C73.64 0 0 73.64 0 164.156v222.722c0 90.516 73.64 164.156 164.156 164.156h222.722c90.516 0 164.156-73.64 164.156-164.156V164.156C551.033 73.64 477.393 0 386.878 0zM495.6 386.878c0 60.045-48.677 108.722-108.722 108.722H164.156c-60.045 0-108.722-48.677-108.722-108.722V164.156c0-60.046 48.677-108.722 108.722-108.722h222.722c60.045 0 108.722 48.676 108.722 108.722v222.722z"/><path d="M275.517 133C196.933 133 133 196.933 133 275.516s63.933 142.517 142.517 142.517S418.034 354.1 418.034 275.516 354.101 133 275.517 133zm0 229.6c-48.095 0-87.083-38.988-87.083-87.083s38.989-87.083 87.083-87.083c48.095 0 87.083 38.988 87.083 87.083 0 48.094-38.989 87.083-87.083 87.083z"/><circle cx="418.31" cy="134.07" r="34.15"/></symbol><symbol viewBox="0 0 483.3 483.3" id="mail" xmlns="http://www.w3.org/2000/svg"><path d="M424.3 57.75H59.1c-32.6 0-59.1 26.5-59.1 59.1v249.6c0 32.6 26.5 59.1 59.1 59.1h365.1c32.6 0 59.1-26.5 59.1-59.1v-249.5c.1-32.6-26.4-59.2-59-59.2zm32.1 308.7c0 17.7-14.4 32.1-32.1 32.1H59.1c-17.7 0-32.1-14.4-32.1-32.1v-249.5c0-17.7 14.4-32.1 32.1-32.1h365.1c17.7 0 32.1 14.4 32.1 32.1v249.5h.1z"/><path d="M304.8 238.55l118.2-106c5.5-5 6-13.5 1-19.1-5-5.5-13.5-6-19.1-1l-163 146.3-31.8-28.4c-.1-.1-.2-.2-.2-.3-.7-.7-1.4-1.3-2.2-1.9L78.3 112.35c-5.6-5-14.1-4.5-19.1 1.1-5 5.6-4.5 14.1 1.1 19.1l119.6 106.9-119.1 111.5c-5.4 5.1-5.7 13.6-.6 19.1 2.7 2.8 6.3 4.3 9.9 4.3 3.3 0 6.6-1.2 9.2-3.6l120.9-113.1 32.8 29.3c2.6 2.3 5.8 3.4 9 3.4s6.5-1.2 9-3.5l33.7-30.2 120.2 114.2c2.6 2.5 6 3.7 9.3 3.7 3.6 0 7.1-1.4 9.8-4.2 5.1-5.4 4.9-14-.5-19.1l-118.7-112.7z"/></symbol><symbol viewBox="0 0 129 129" id="next" xmlns="http://www.w3.org/2000/svg"><path d="M40.4 121.3c-.8.8-1.8 1.2-2.9 1.2s-2.1-.4-2.9-1.2c-1.6-1.6-1.6-4.2 0-5.8l51-51-51-51c-1.6-1.6-1.6-4.2 0-5.8 1.6-1.6 4.2-1.6 5.8 0l53.9 53.9c1.6 1.6 1.6 4.2 0 5.8l-53.9 53.9z"/></symbol><symbol viewBox="0 0 35 35" id="phone" xmlns="http://www.w3.org/2000/svg"><path d="M25.302 0H9.698a2.37 2.37 0 0 0-2.364 2.364v30.271A2.371 2.371 0 0 0 9.698 35h15.604a2.37 2.37 0 0 0 2.364-2.364V2.364A2.37 2.37 0 0 0 25.302 0zM15.004 1.704h4.992a.286.286 0 0 1 0 .573h-4.992a.286.286 0 1 1 0-.573zM17.5 33.818a1.182 1.182 0 1 1 0-2.364 1.182 1.182 0 0 1 0 2.364zm8.521-3.193H8.979V3.749h17.042v26.876z"/></symbol><symbol viewBox="0 0 477.175 477.175" id="prev" xmlns="http://www.w3.org/2000/svg"><path d="M145.188 238.575l215.5-215.5c5.3-5.3 5.3-13.8 0-19.1s-13.8-5.3-19.1 0l-225.1 225.1c-5.3 5.3-5.3 13.8 0 19.1l225.1 225c2.6 2.6 6.1 4 9.5 4s6.9-1.3 9.5-4c5.3-5.3 5.3-13.8 0-19.1l-215.4-215.5z"/></symbol><symbol viewBox="0 0 189.473 189.473" id="telegram" xmlns="http://www.w3.org/2000/svg"><path d="M152.531 179.476c-1.48 0-2.95-.438-4.211-1.293l-47.641-32.316-25.552 18.386a7.502 7.502 0 0 1-11.633-4.174l-12.83-48.622L4.821 93.928a7.501 7.501 0 0 1-.094-13.975l174.312-69.36a7.503 7.503 0 0 1 10.282 8.408L159.898 173.38a7.499 7.499 0 0 1-7.367 6.096zm-47.669-48.897l42.437 28.785L170.193 39.24l-82.687 79.566 17.156 11.638c.069.043.135.089.2.135zm-35.327-6.401l5.682 21.53 12.242-8.809-16.03-10.874a7.478 7.478 0 0 1-1.894-1.847zM28.136 86.782l31.478 12.035a7.5 7.5 0 0 1 4.573 5.092l3.992 15.129a7.504 7.504 0 0 1 2.259-4.624L149.227 38.6 28.136 86.782z"/></symbol><symbol viewBox="0 0 304.36 304.36" id="vk" xmlns="http://www.w3.org/2000/svg"><path d="M261.945 175.576c10.096 9.857 20.752 19.131 29.807 29.982 4 4.822 7.787 9.798 10.684 15.394 4.105 7.955.387 16.709-6.746 17.184l-44.34-.02c-11.436.949-20.559-3.655-28.23-11.474-6.139-6.253-11.824-12.908-17.727-19.372-2.42-2.642-4.953-5.128-7.979-7.093-6.053-3.929-11.307-2.726-14.766 3.587-3.523 6.421-4.322 13.531-4.668 20.687-.475 10.441-3.631 13.186-14.119 13.664-22.414 1.057-43.686-2.334-63.447-13.641-17.422-9.968-30.932-24.04-42.691-39.971-22.895-31.021-40.428-65.108-56.186-100.15C-2.01 76.458.584 72.22 9.295 72.07c14.465-.281 28.928-.261 43.41-.02 5.879.086 9.771 3.458 12.041 9.012 7.826 19.243 17.402 37.551 29.422 54.521 3.201 4.518 6.465 9.036 11.113 12.216 5.142 3.521 9.057 2.354 11.476-3.374 1.535-3.632 2.207-7.544 2.553-11.434 1.146-13.383 1.297-26.743-.713-40.079-1.234-8.323-5.922-13.711-14.227-15.286-4.238-.803-3.607-2.38-1.555-4.799 3.564-4.172 6.916-6.769 13.598-6.769h50.111c7.889 1.557 9.641 5.101 10.721 13.039l.043 55.663c-.086 3.073 1.535 12.192 7.07 14.226 4.43 1.448 7.35-2.096 10.008-4.905 11.998-12.734 20.561-27.783 28.211-43.366 3.395-6.852 6.314-13.968 9.143-21.078 2.096-5.276 5.385-7.872 11.328-7.757l48.229.043c1.43 0 2.877.021 4.262.258 8.127 1.385 10.354 4.881 7.844 12.817-3.955 12.451-11.65 22.827-19.174 33.251-8.043 11.129-16.645 21.877-24.621 33.072-7.328 10.223-6.746 15.376 2.357 24.255zm0 0" fill-rule="evenodd" clip-rule="evenodd"/></symbol></svg>