<?xml version="1.0" encoding="utf-8"?><svg xmlns="http://www.w3.org/2000/svg" xmlns:xlink="http://www.w3.org/1999/xlink"><symbol viewBox="0 0 94 94" id="classMates" xmlns="http://www.w3.org/2000/svg"><path d="M47.051 37.59c5.247-.017 9.426-4.23 9.407-9.489-.021-5.259-4.207-9.448-9.456-9.452-5.293-.005-9.52 4.259-9.479 9.566.039 5.239 4.265 9.397 9.528 9.375z"/><path d="M89 0H5a5 5 0 0 0-5 5v84a5 5 0 0 0 5 5h84a5 5 0 0 0 5-5V5a5 5 0 0 0-5-5zM47.08 8.766c10.699.027 19.289 8.781 19.236 19.602-.057 10.57-8.787 19.138-19.469 19.102-10.576-.036-19.248-8.803-19.188-19.396.063-10.709 8.741-19.34 19.421-19.308zm21.673 46.306c-2.366 2.431-5.214 4.187-8.378 5.416-2.991 1.156-6.268 1.742-9.512 2.13.49.534.721.793 1.025 1.102 4.404 4.425 8.826 8.832 13.215 13.27 1.494 1.511 1.81 3.386.985 5.145-.901 1.925-2.916 3.188-4.894 3.052-1.252-.088-2.228-.711-3.094-1.582-3.324-3.345-6.711-6.627-9.965-10.031-.947-.992-1.403-.807-2.241.056a664.352 664.352 0 0 1-10.155 10.2c-1.535 1.514-3.36 1.785-5.143.922-1.892-.917-3.094-2.848-3.001-4.791.064-1.312.71-2.314 1.611-3.214 4.356-4.351 8.702-8.713 13.05-13.072.289-.288.557-.597.976-1.045-5.929-.619-11.275-2.077-15.85-5.657-.567-.445-1.154-.875-1.674-1.373-2.002-1.924-2.203-4.125-.618-6.396 1.354-1.942 3.632-2.464 5.997-1.349.459.215.895.486 1.313.775 8.528 5.86 20.245 6.023 28.806.266.847-.647 1.754-1.183 2.806-1.449 2.045-.525 3.947.224 5.045 2.012 1.257 2.037 1.24 4.029-.304 5.613z"/></symbol><symbol viewBox="0 0 64 64" id="close" xmlns="http://www.w3.org/2000/svg"><path d="M28.941 31.786L.613 60.114a2.014 2.014 0 1 0 2.848 2.849l28.541-28.541 28.541 28.541c.394.394.909.59 1.424.59a2.014 2.014 0 0 0 1.424-3.439L35.064 31.786 63.41 3.438A2.014 2.014 0 1 0 60.562.589L32.003 29.15 3.441.59A2.015 2.015 0 0 0 .593 3.439l28.348 28.347z"/></symbol><symbol viewBox="0 0 97.395 97.395" id="insta" xmlns="http://www.w3.org/2000/svg"><path d="M12.501 0h72.393c6.875 0 12.5 5.09 12.5 12.5v72.395c0 7.41-5.625 12.5-12.5 12.5H12.501C5.624 97.395 0 92.305 0 84.895V12.5C0 5.09 5.624 0 12.501 0zm58.447 10.821a4.395 4.395 0 0 0-4.383 4.385v10.495a4.396 4.396 0 0 0 4.383 4.385h11.008a4.398 4.398 0 0 0 4.385-4.385V15.206a4.397 4.397 0 0 0-4.385-4.385H70.948zm15.439 30.367h-8.572a28.486 28.486 0 0 1 1.25 8.355c0 16.2-13.556 29.332-30.275 29.332-16.718 0-30.272-13.132-30.272-29.332 0-2.904.438-5.708 1.25-8.355h-8.945v41.141a3.884 3.884 0 0 0 3.872 3.872h67.822a3.883 3.883 0 0 0 3.872-3.872V41.188h-.002zM48.789 29.533c-10.802 0-19.56 8.485-19.56 18.953s8.758 18.953 19.56 18.953c10.803 0 19.562-8.485 19.562-18.953s-8.758-18.953-19.562-18.953z"/></symbol><symbol viewBox="0 0 95.44 95.441" id="metro" xmlns="http://www.w3.org/2000/svg"><path d="M47.721 11.712C21.366 11.712 0 33.281 0 59.888c0 14.427 6.226 23.836 6.226 23.836l82.97.004s6.244-10.283 6.244-23.841c0-26.606-21.366-48.175-47.719-48.175zm37.975 66.147l-75.799-.033s-4.039-7.649-4.039-18.09c0-23.32 18.814-42.226 42.023-42.226 23.208 0 42.023 18.905 42.023 42.226.001 10.559-4.208 18.123-4.208 18.123z"/><path d="M61.207 24.505l-.599-.001-12.729 24.943-13.187-25.156-18.055 45.445h-4.666v3.65h25.562v-3.65h-5.072l5.072-14.203 10.346 17.853 9.941-17.853 5.071 14.203H57.82v3.65h25.358v-3.65h-4.393z"/></symbol><symbol viewBox="0 0 512 512" id="quote" xmlns="http://www.w3.org/2000/svg"><path d="M224.001 74.328c5.891 0 10.667-4.776 10.667-10.667s-4.776-10.667-10.667-10.667c-123.653.141-223.859 100.347-224 224v64c-.185 64.99 52.349 117.825 117.338 118.01 64.99.185 117.825-52.349 118.01-117.338.185-64.99-52.349-117.825-117.338-118.01a117.675 117.675 0 0 0-96.506 49.861C23.48 163.049 113.514 74.485 224.001 74.328zm170.666 149.334a117.202 117.202 0 0 0-95.829 49.856c1.976-110.469 92.01-199.033 202.496-199.189 5.891 0 10.667-4.776 10.667-10.667s-4.776-10.667-10.667-10.667c-123.653.141-223.859 100.347-224 224v64c0 64.801 52.532 117.333 117.333 117.333S512 405.796 512 340.995s-52.531-117.333-117.333-117.333z"/></symbol><symbol viewBox="0 0 548.358 548.358" id="vk" xmlns="http://www.w3.org/2000/svg"><path d="M545.451 400.298c-.664-1.431-1.283-2.618-1.858-3.569-9.514-17.135-27.695-38.167-54.532-63.102l-.567-.571-.284-.28-.287-.287h-.288c-12.18-11.611-19.893-19.418-23.123-23.415-5.91-7.614-7.234-15.321-4.004-23.13 2.282-5.9 10.854-18.36 25.696-37.397 7.807-10.089 13.99-18.175 18.556-24.267 32.931-43.78 47.208-71.756 42.828-83.939l-1.701-2.847c-1.143-1.714-4.093-3.282-8.846-4.712-4.764-1.427-10.853-1.663-18.278-.712l-82.224.568c-1.332-.472-3.234-.428-5.712.144l-3.713.859-1.431.715-1.136.859c-.952.568-1.999 1.567-3.142 2.995-1.137 1.423-2.088 3.093-2.848 4.996-8.952 23.031-19.13 44.444-30.553 64.238-7.043 11.803-13.511 22.032-19.418 30.693-5.899 8.658-10.848 15.037-14.842 19.126-4 4.093-7.61 7.372-10.852 9.849-3.237 2.478-5.708 3.525-7.419 3.142-1.715-.383-3.33-.763-4.859-1.143-2.663-1.714-4.805-4.045-6.42-6.995-1.622-2.95-2.714-6.663-3.285-11.136-.568-4.476-.904-8.326-1-11.563-.089-3.233-.048-7.806.145-13.706.198-5.903.287-9.897.287-11.991 0-7.234.141-15.085.424-23.555.288-8.47.521-15.181.716-20.125.194-4.949.284-10.185.284-15.705s-.336-9.849-1-12.991a44.442 44.442 0 0 0-2.99-9.137c-1.335-2.95-3.289-5.232-5.853-6.852-2.569-1.618-5.763-2.902-9.564-3.856-10.089-2.283-22.936-3.518-38.547-3.71-35.401-.38-58.148 1.906-68.236 6.855-3.997 2.091-7.614 4.948-10.848 8.562-3.427 4.189-3.905 6.475-1.431 6.851 11.422 1.711 19.508 5.804 24.267 12.275l1.715 3.429c1.334 2.474 2.666 6.854 3.999 13.134 1.331 6.28 2.19 13.227 2.568 20.837.95 13.897.95 25.793 0 35.689-.953 9.9-1.853 17.607-2.712 23.127-.859 5.52-2.143 9.993-3.855 13.418-1.715 3.426-2.856 5.52-3.428 6.28-.571.76-1.047 1.239-1.425 1.427a21.387 21.387 0 0 1-7.71 1.431c-2.667 0-5.901-1.334-9.707-4-3.805-2.666-7.754-6.328-11.847-10.992-4.093-4.665-8.709-11.184-13.85-19.558-5.137-8.374-10.467-18.271-15.987-29.691l-4.567-8.282c-2.855-5.328-6.755-13.086-11.704-23.267-4.952-10.185-9.329-20.037-13.134-29.554-1.521-3.997-3.806-7.04-6.851-9.134l-1.429-.859c-.95-.76-2.475-1.567-4.567-2.427a30.301 30.301 0 0 0-6.567-1.854l-78.229.568c-7.994 0-13.418 1.811-16.274 5.428l-1.143 1.711c-.571.953-.859 2.475-.859 4.57 0 2.094.571 4.664 1.714 7.707 11.42 26.84 23.839 52.725 37.257 77.659 13.418 24.934 25.078 45.019 34.973 60.237 9.897 15.229 19.985 29.602 30.264 43.112 10.279 13.515 17.083 22.176 20.412 25.981 3.333 3.812 5.951 6.662 7.854 8.565l7.139 6.851c4.568 4.569 11.276 10.041 20.127 16.416 8.853 6.379 18.654 12.659 29.408 18.85 10.756 6.181 23.269 11.225 37.546 15.126 14.275 3.905 28.169 5.472 41.684 4.716h32.834c6.659-.575 11.704-2.669 15.133-6.283l1.136-1.431c.764-1.136 1.479-2.901 2.139-5.276.668-2.379 1-5 1-7.851-.195-8.183.428-15.558 1.852-22.124 1.423-6.564 3.045-11.513 4.859-14.846 1.813-3.33 3.859-6.14 6.136-8.418 2.282-2.283 3.908-3.666 4.862-4.142.948-.479 1.705-.804 2.276-.999 4.568-1.522 9.944-.048 16.136 4.429 6.187 4.473 11.99 9.996 17.418 16.56 5.425 6.57 11.943 13.941 19.555 22.124 7.617 8.186 14.277 14.271 19.985 18.274l5.708 3.426c3.812 2.286 8.761 4.38 14.853 6.283 6.081 1.902 11.409 2.378 15.984 1.427l73.087-1.14c7.229 0 12.854-1.197 16.844-3.572 3.998-2.379 6.373-5 7.139-7.851.764-2.854.805-6.092.145-9.712-.677-3.611-1.344-6.136-2.008-7.563z"/></symbol></svg>