<?xml version="1.0" encoding="utf-8"?><svg xmlns="http://www.w3.org/2000/svg" xmlns:xlink="http://www.w3.org/1999/xlink"><symbol viewBox="0 0 21 13" id="ar" xmlns="http://www.w3.org/2000/svg"><path fill-rule="evenodd" clip-rule="evenodd" d="M14.12.84a.844.844 0 011.196 0l5.062 5.063a.843.843 0 010 1.194l-5.062 5.063a.845.845 0 01-1.195-1.195L18.588 6.5 14.12 2.035a.844.844 0 010-1.195z"/><path fill-rule="evenodd" clip-rule="evenodd" d="M.375 6.5a.844.844 0 01.844-.844h17.718a.844.844 0 110 1.688H1.22A.844.844 0 01.375 6.5z"/></symbol><symbol viewBox="0 0 24 24" id="face" xmlns="http://www.w3.org/2000/svg"><path d="M4.382 0A4.373 4.373 0 000 4.382v15.236A4.373 4.373 0 004.382 24h8.258v-9.383h-2.481V11.24h2.48V8.354c0-2.268 1.467-4.35 4.844-4.35 1.367 0 2.378.132 2.378.132l-.08 3.154s-1.03-.01-2.156-.01c-1.218 0-1.413.561-1.413 1.493v2.466h3.666l-.16 3.378h-3.506V24h3.406A4.373 4.373 0 0024 19.618V4.382A4.373 4.373 0 0019.618 0H4.382z"/></symbol><symbol viewBox="0 0 30 30" id="inst" xmlns="http://www.w3.org/2000/svg"><path d="M22.241 9.522A3.073 3.073 0 0020.48 7.76a5.165 5.165 0 00-1.725-.32c-.98-.045-1.275-.055-3.754-.055s-2.773.01-3.75.055a5.125 5.125 0 00-1.725.319A3.072 3.072 0 007.762 9.52a5.159 5.159 0 00-.32 1.725c-.045.98-.053 1.274-.053 3.754s.008 2.775.053 3.753c.007.59.115 1.173.32 1.726a3.076 3.076 0 001.762 1.762 5.158 5.158 0 001.725.319c.978.045 1.272.053 3.752.053 2.48 0 2.775-.008 3.754-.053a5.132 5.132 0 001.725-.32 3.075 3.075 0 001.762-1.763 5.136 5.136 0 00.32-1.725c.045-.979.054-1.272.054-3.752 0-2.48-.009-2.774-.054-3.753a5.128 5.128 0 00-.32-1.725zM15 19.768a4.768 4.768 0 110-9.536 4.768 4.768 0 010 9.537zm4.957-8.612a1.115 1.115 0 010-2.229h.002a1.115 1.115 0 01.006 2.229h-.008z"/><path d="M15 11.904a3.096 3.096 0 10-.002 6.193A3.096 3.096 0 0015 11.904z"/><path d="M27.413 8.838a8.416 8.416 0 00-.526-2.83 4.724 4.724 0 00-1.14-1.754 4.72 4.72 0 00-1.755-1.141 8.464 8.464 0 00-2.83-.526c-1.61-.07-2.09-.087-6.162-.087-4.069 0-4.553.015-6.16.087a8.45 8.45 0 00-2.831.525 4.7 4.7 0 00-1.754 1.142 4.758 4.758 0 00-1.141 1.754 8.466 8.466 0 00-.525 2.83c-.071 1.61-.089 2.092-.089 6.163 0 4.072.015 4.554.089 6.162.012.966.188 1.924.525 2.83a4.698 4.698 0 001.14 1.753 4.739 4.739 0 001.754 1.142 8.414 8.414 0 002.83.524c1.608.074 2.092.088 6.162.088 4.071 0 4.554-.015 6.163-.087a8.416 8.416 0 002.83-.526 5.05 5.05 0 002.895-2.893 8.492 8.492 0 00.524-2.831c.073-1.61.088-2.093.088-6.163 0-4.071-.015-4.553-.087-6.162zm-3.182 9.99a6.796 6.796 0 01-.431 2.256 4.75 4.75 0 01-2.716 2.716 6.815 6.815 0 01-2.254.431c-.991.046-1.307.056-3.83.056s-2.838-.01-3.829-.056a6.817 6.817 0 01-2.253-.431A4.749 4.749 0 016.2 21.084a6.813 6.813 0 01-.431-2.255c-.044-.99-.056-1.306-.056-3.829s.01-2.839.056-3.829c.015-.77.16-1.533.431-2.255A4.747 4.747 0 018.918 6.2a6.812 6.812 0 012.253-.431c.992-.046 1.309-.056 3.83-.056 2.522 0 2.838.01 3.829.056.77.015 1.533.16 2.255.431A4.751 4.751 0 0123.8 8.916c.271.723.416 1.484.431 2.255.045.99.056 1.306.056 3.829s-.01 2.837-.056 3.829z"/></symbol><symbol viewBox="0 0 24 24" id="mm" xmlns="http://www.w3.org/2000/svg"><g clip-path="url(#dclip0)"><path d="M20 0H4a4.012 4.012 0 00-4 4v16c0 2.2 1.8 4 4 4h16c2.201 0 4-1.8 4-4V4a4.01 4.01 0 00-4-4zM6 6h12c.215 0 .422.046.613.132L12 13.847 5.386 6.132C5.58 6.044 5.788 5.999 6 6zM4.5 16.5v-9l.003-.095 4.398 5.132-4.35 4.35A1.45 1.45 0 014.5 16.5zM18 18H6a1.51 1.51 0 01-.387-.051l4.269-4.269 2.12 2.472 2.119-2.472 4.269 4.269a1.45 1.45 0 01-.387.051H18zm1.5-1.5c0 .132-.018.262-.051.387l-4.35-4.35 4.398-5.132.003.095v9z"/></g><defs><clipPath id="dclip0"><path d="M0 0h24v24H0z"/></clipPath></defs></symbol><symbol viewBox="0 0 24 24" id="vk" xmlns="http://www.w3.org/2000/svg"><path d="M15.683 0H8.316C1.593 0-.001 1.594-.001 8.317v7.367c0 6.723 1.594 8.317 8.317 8.317h7.367C22.406 24 24 22.407 24 15.684V8.317C24 1.594 22.39 0 15.683 0zm3.692 17.121h-1.743c-.66 0-.863-.523-2.05-1.726-1.032-1-1.488-1.133-1.743-1.133-.359 0-.46.101-.46.594v1.574c0 .422-.133.676-1.251.676-1.848 0-3.898-1.118-5.336-3.2C4.624 10.857 4.03 8.57 4.03 8.098c0-.255.102-.492.59-.492h1.746c.442 0 .61.203.781.675.864 2.493 2.301 4.676 2.894 4.676.22 0 .32-.101.32-.66V9.723c-.066-1.187-.69-1.29-.69-1.71 0-.204.167-.407.437-.407h2.745c.372 0 .508.203.508.64v3.473c0 .375.168.508.27.508.218 0 .406-.133.812-.54 1.254-1.406 2.152-3.574 2.152-3.574.117-.254.32-.492.762-.492h1.746c.523 0 .64.269.523.644-.219 1.015-2.355 4.031-2.355 4.031-.184.305-.255.438 0 .777.187.255.797.782 1.203 1.254.746.848 1.32 1.559 1.473 2.05.172.489-.082.743-.575.743l.003.001z"/></symbol></svg>