<?xml version="1.0" encoding="utf-8"?><svg xmlns="http://www.w3.org/2000/svg" xmlns:xlink="http://www.w3.org/1999/xlink"><symbol viewBox="-21 -47 682.667 682" id="com" xmlns="http://www.w3.org/2000/svg"><path d="M552.012-1.332H87.988C39.473-1.332 0 38.133 0 86.656V370.63c0 48.414 39.3 87.816 87.676 87.988V587.48l185.191-128.863h279.145c48.515 0 87.988-39.472 87.988-87.988V86.656c0-48.523-39.473-87.988-87.988-87.988zm50.488 371.96c0 27.837-22.648 50.49-50.488 50.49h-290.91l-135.926 94.585v-94.586H87.988c-27.84 0-50.488-22.652-50.488-50.488V86.656c0-27.843 22.648-50.488 50.488-50.488h464.024c27.84 0 50.488 22.645 50.488 50.488zm0 0"/><path d="M171.293 131.172h297.414v37.5H171.293zm0 80h297.414v37.5H171.293zm0 80h297.414v37.5H171.293zm0 0"/></symbol><symbol viewBox="0 0 457.143 457.143" id="display" xmlns="http://www.w3.org/2000/svg"><path d="M431.816 0H25.324C11.364 0 0 11.355 0 25.32v306.75c0 13.91 11.363 25.235 25.324 25.235h107.89c7.454 8.902 18.071 17.46 28.587 25.75 14.726 11.605 33.054 26.05 31.668 35.465-.442 3-4.196 11.043-29.45 20.972a9.143 9.143 0 003.344 17.653h122.328a9.143 9.143 0 003.344-17.652c-25.254-9.93-29.008-17.973-29.445-20.973-1.39-9.422 16.972-23.875 31.73-35.493 10.516-8.273 21.137-16.824 28.598-25.722h107.898c13.965 0 25.329-11.325 25.329-25.235V25.32C457.145 11.355 445.78 0 431.816 0zM25.324 18.285h406.492c3.883 0 7.04 3.153 7.04 7.035v255.848H18.285V25.32a7.04 7.04 0 017.038-7.035zM284.008 368.66c-20.375 16.035-41.442 32.625-38.512 52.528.945 6.41 4.2 12.25 9.945 17.667h-53.828c5.742-5.418 9-11.257 9.946-17.668 2.933-19.894-18.098-36.464-38.442-52.5-4.781-3.769-9.61-7.593-14.047-11.382h138.97c-4.435 3.78-9.255 7.597-14.032 11.355zm147.808-29.64H25.324c-3.883 0-7.039-3.118-7.039-6.95v-32.613h420.57v32.613c0 3.832-3.156 6.95-7.039 6.95zm0 0"/><path d="M259.621 310.098h-62.098a9.142 9.142 0 00-9.144 9.144c0 5.051 4.094 9.14 9.144 9.14h62.098a9.14 9.14 0 009.14-9.14 9.14 9.14 0 00-9.14-9.144zM54.855 103.867c2.34 0 4.68-.894 6.465-2.68l39.867-39.867a9.138 9.138 0 000-12.925 9.136 9.136 0 00-12.93 0L48.396 88.258a9.136 9.136 0 000 12.93 9.114 9.114 0 006.46 2.68zm4.649 44.125c1.785 1.785 4.125 2.676 6.465 2.676s4.68-.89 6.465-2.676l75.558-75.554c3.57-3.57 3.57-9.356 0-12.93-3.574-3.57-9.36-3.57-12.93 0l-75.558 75.554c-3.57 3.57-3.57 9.356 0 12.93zm0 0"/></symbol><symbol viewBox="0 -28 512.001 512" id="heart" xmlns="http://www.w3.org/2000/svg"><path d="M256 455.516a30.022 30.022 0 01-19.793-7.438c-20.684-18.086-40.625-35.082-58.219-50.074l-.09-.078c-51.582-43.957-96.125-81.918-127.117-119.313C16.137 236.81 0 197.172 0 153.871c0-42.07 14.426-80.883 40.617-109.293C67.121 15.832 103.488 0 143.031 0c29.555 0 56.621 9.344 80.446 27.77C235.5 37.07 246.398 48.453 256 61.73c9.605-13.277 20.5-24.66 32.527-33.96C312.352 9.344 339.418 0 368.973 0c39.539 0 75.91 15.832 102.414 44.578C497.578 72.988 512 111.801 512 153.871c0 43.3-16.133 82.938-50.777 124.738-30.993 37.399-75.532 75.356-127.106 119.309-17.625 15.016-37.597 32.039-58.328 50.168a30.046 30.046 0 01-19.789 7.43zM143.031 29.992c-31.066 0-59.605 12.399-80.367 34.914-21.07 22.856-32.676 54.45-32.676 88.965 0 36.418 13.535 68.988 43.883 105.606 29.332 35.394 72.961 72.574 123.477 115.625l.093.078c17.66 15.05 37.68 32.113 58.516 50.332 20.961-18.254 41.012-35.344 58.707-50.418 50.512-43.051 94.137-80.223 123.469-115.617 30.344-36.618 43.879-69.188 43.879-105.606 0-34.516-11.606-66.11-32.676-88.965-20.758-22.515-49.3-34.914-80.363-34.914-22.758 0-43.653 7.235-62.102 21.5-16.441 12.719-27.894 28.797-34.61 40.047-3.452 5.785-9.53 9.238-16.261 9.238s-12.809-3.453-16.262-9.238c-6.71-11.25-18.164-27.328-34.61-40.047-18.448-14.265-39.343-21.5-62.097-21.5zm0 0"/></symbol><symbol viewBox="0 0 512 512" id="mouse" xmlns="http://www.w3.org/2000/svg"><path d="M256 0C156.595 0 75.726 82.14 75.726 183.099v145.807C75.726 429.865 156.595 512 256 512c99.399 0 180.274-81.886 180.274-182.534V183.099C436.274 82.14 355.399 0 256 0zm146.366 329.466c0 81.954-65.656 148.627-146.366 148.627-80.705 0-146.366-66.927-146.366-149.192V183.099c0-82.265 65.661-149.192 146.366-149.192 80.711 0 146.366 66.927 146.366 149.192v146.367z"/><path d="M256 140.15c-9.364 0-16.954 7.59-16.954 16.954v59.338c0 9.364 7.59 16.954 16.954 16.954s16.954-7.59 16.954-16.954v-59.338c0-9.364-7.59-16.954-16.954-16.954z"/></symbol><symbol viewBox="0 0 60 60" id="timer" xmlns="http://www.w3.org/2000/svg"><path d="M30 0a1 1 0 00-1 1v13.292a1 1 0 102 0V2.018C45.979 2.546 58 14.896 58 30c0 15.439-12.561 28-28 28S2 45.439 2 30c0-7.46 2.9-14.479 8.166-19.764A.999.999 0 108.75 8.824C3.107 14.486 0 22.007 0 30c0 16.542 13.458 30 30 30s30-13.458 30-30S46.542 0 30 0z"/><path d="M28.555 33.532A3.575 3.575 0 0031.438 35a3.54 3.54 0 002.518-1.044 3.56 3.56 0 00-.426-5.403L20.586 19.19a1 1 0 00-1.397 1.397l9.366 12.945z"/></symbol><symbol viewBox="0 0 508 508" id="umb" xmlns="http://www.w3.org/2000/svg"><path d="M262.2 24.8V0h-16.4v24.8C114.1 29.1 8.2 137.6 8.2 270.4v14.1L73.8 247l57.4 32.8 57.6-32.9 57.1 28.6V467c0 13.6-11 24.6-24.6 24.6-13.6 0-24.6-11-24.6-24.6v-24.6h-16.4V467c0 22.6 18.4 41 41 41s41-18.4 41-41V275.5l57.1-28.6 59 32.9 55.9-32.7 65.5 37.4v-14.1c0-132.8-105.9-241.3-237.6-245.6zM123.3 256.5l-49.5-28.3L25 256c7-111.6 94-201.8 204.3-213.7-64.1 53.8-102.1 130.8-106 214.2zm122.5.5l-57.6-28.7-48.5 27.7c4-80.5 41.9-154.8 105.3-205.6l.8-.7V257zm74-28.7l-57.6 28.8V49.8l.8.7c63.3 50.6 101.1 124.6 105.3 204.9l-48.5-27.1zm114.4-.2l-49.5 29C381 173.5 343 96.3 278.7 42.3 389 54.2 476 144.4 483 256l-48.8-27.9z"/></symbol><symbol viewBox="0 0 511.962 511.962" id="vk" xmlns="http://www.w3.org/2000/svg"><path d="M507.399 370.471c-1.376-2.304-9.888-20.8-50.848-58.816-42.88-39.808-37.12-33.344 14.528-102.176 31.456-41.92 44.032-67.52 40.096-78.464-3.744-10.432-26.88-7.68-26.88-7.68l-76.928.448s-5.696-.768-9.952 1.76c-4.128 2.496-6.784 8.256-6.784 8.256s-12.192 32.448-28.448 60.032c-34.272 58.208-48 61.28-53.6 57.664-13.024-8.416-9.76-33.856-9.76-51.904 0-56.416 8.544-79.936-16.672-86.016-8.384-2.016-14.528-3.36-35.936-3.584-27.456-.288-50.72.096-63.872 6.528-8.768 4.288-15.52 13.856-11.392 14.4 5.088.672 16.608 3.104 22.72 11.424 7.904 10.72 7.616 34.848 7.616 34.848s4.544 66.4-10.592 74.656c-10.4 5.664-24.64-5.888-55.2-58.72-15.648-27.04-27.488-56.96-27.488-56.96s-2.272-5.568-6.336-8.544c-4.928-3.616-11.84-4.768-11.84-4.768l-73.152.448s-10.976.32-15.008 5.088c-3.584 4.256-.288 13.024-.288 13.024s57.28 133.984 122.112 201.536c59.488 61.92 127.008 57.856 127.008 57.856h30.592s9.248-1.024 13.952-6.112c4.352-4.672 4.192-13.44 4.192-13.44s-.608-41.056 18.464-47.104c18.784-5.952 42.912 39.68 68.48 57.248 19.328 13.28 34.016 10.368 34.016 10.368l68.384-.96s35.776-2.208 18.816-30.336z"/></symbol></svg>