<?xml version="1.0" encoding="utf-8"?><svg xmlns="http://www.w3.org/2000/svg" xmlns:xlink="http://www.w3.org/1999/xlink"><symbol viewBox="0 0 512 512" id="angel" xmlns="http://www.w3.org/2000/svg"><path d="M256 90c52.264 0 105-13.914 105-45S308.264 0 256 0 151 13.914 151 45s52.736 45 105 45zm0-60c41.459 0 66.596 9.455 73.639 15-7.043 5.545-32.179 15-73.639 15s-66.596-9.455-73.639-15c7.043-5.545 32.18-15 73.639-15z"/><path d="M45.608 314.888c9.875 59.251 5.09 120.584-13.838 177.368A15.003 15.003 0 0046 512c41.873 0 78.094-24.641 94.94-60.181 34.453-2.253 62.616-27.864 68.784-61.117 18.585-3.509 34.913-14.022 46.277-29.333 11.362 15.307 27.689 25.823 46.277 29.333 6.167 33.253 34.331 58.864 68.783 61.117C387.906 487.359 424.127 512 466 512a15 15 0 0014.23-19.743c-18.928-56.784-23.713-118.117-13.833-177.399C478.448 238.607 481 233.38 481 215.008c0-36.255-14.118-70.34-39.754-95.975l-9.155-9.156C419.272 97.059 402.23 90 384.103 90a67.778 67.778 0 00-64.382 46.404A63.676 63.676 0 01259.24 180h-6.475a63.676 63.676 0 01-60.486-43.596A67.778 67.778 0 00127.897 90c-35.573 0-52.082 25.266-57.143 29.032C45.118 144.668 31 178.753 31 215.008c0 18.455 2.813 25.25 14.608 99.88zm302.573-168.997A37.817 37.817 0 01384.103 120c10.114 0 19.623 3.939 26.774 11.09l9.156 9.155C440.002 160.215 451 186.767 451 215.008c0 14.684-2.17 19.428-14.2 94.948-9.37 56.22-6.529 114.181 8.143 169.035C413.805 469.869 391 441.048 391 407v-91c0-8.284-6.716-15-15-15s-15 6.716-15 15v91c0 4.292.265 8.522.768 12.68C343.911 413.71 331 396.84 331 377v-92c0-8.284-6.716-15-15-15s-15 6.716-15 15v74.258c-17.28-6.476-30-23.67-30-43.258V209.257a93.622 93.622 0 0077.181-63.366zm-256.213-5.645c5.832-4.574 14.8-20.246 35.93-20.246a37.816 37.816 0 0135.921 25.891A93.63 93.63 0 00241 209.266V316c0 19.588-12.72 36.782-30 43.258V285c0-8.284-6.716-15-15-15s-15 6.716-15 15v92c0 19.84-12.911 36.71-30.768 42.68.503-4.158.768-8.389.768-12.68v-91c0-8.284-6.716-15-15-15s-15 6.716-15 15v91c0 34.048-22.805 62.869-53.943 71.992 14.672-54.854 17.513-112.811 8.147-169.004C62.876 232.589 61 229.616 61 215.008c0-28.241 10.998-54.793 30.968-74.762z"/></symbol><symbol viewBox="-21 -47 682.667 682" id="com" xmlns="http://www.w3.org/2000/svg"><path d="M552.012-1.332H87.988C39.473-1.332 0 38.133 0 86.656V370.63c0 48.414 39.3 87.816 87.676 87.988V587.48l185.191-128.863h279.145c48.515 0 87.988-39.472 87.988-87.988V86.656c0-48.523-39.473-87.988-87.988-87.988zm50.488 371.96c0 27.837-22.648 50.49-50.488 50.49h-290.91l-135.926 94.585v-94.586H87.988c-27.84 0-50.488-22.652-50.488-50.488V86.656c0-27.843 22.648-50.488 50.488-50.488h464.024c27.84 0 50.488 22.645 50.488 50.488zm0 0"/><path d="M171.293 131.172h297.414v37.5H171.293zm0 80h297.414v37.5H171.293zm0 80h297.414v37.5H171.293zm0 0"/></symbol><symbol viewBox="0 0 457.143 457.143" id="display" xmlns="http://www.w3.org/2000/svg"><path d="M431.816 0H25.324C11.364 0 0 11.355 0 25.32v306.75c0 13.91 11.363 25.235 25.324 25.235h107.89c7.454 8.902 18.071 17.46 28.587 25.75 14.726 11.605 33.054 26.05 31.668 35.465-.442 3-4.196 11.043-29.45 20.972a9.143 9.143 0 003.344 17.653h122.328a9.143 9.143 0 003.344-17.652c-25.254-9.93-29.008-17.973-29.445-20.973-1.39-9.422 16.972-23.875 31.73-35.493 10.516-8.273 21.137-16.824 28.598-25.722h107.898c13.965 0 25.329-11.325 25.329-25.235V25.32C457.145 11.355 445.78 0 431.816 0zM25.324 18.285h406.492c3.883 0 7.04 3.153 7.04 7.035v255.848H18.285V25.32a7.04 7.04 0 017.038-7.035zM284.008 368.66c-20.375 16.035-41.442 32.625-38.512 52.528.945 6.41 4.2 12.25 9.945 17.667h-53.828c5.742-5.418 9-11.257 9.946-17.668 2.933-19.894-18.098-36.464-38.442-52.5-4.781-3.769-9.61-7.593-14.047-11.382h138.97c-4.435 3.78-9.255 7.597-14.032 11.355zm147.808-29.64H25.324c-3.883 0-7.039-3.118-7.039-6.95v-32.613h420.57v32.613c0 3.832-3.156 6.95-7.039 6.95zm0 0"/><path d="M259.621 310.098h-62.098a9.142 9.142 0 00-9.144 9.144c0 5.051 4.094 9.14 9.144 9.14h62.098a9.14 9.14 0 009.14-9.14 9.14 9.14 0 00-9.14-9.144zM54.855 103.867c2.34 0 4.68-.894 6.465-2.68l39.867-39.867a9.138 9.138 0 000-12.925 9.136 9.136 0 00-12.93 0L48.396 88.258a9.136 9.136 0 000 12.93 9.114 9.114 0 006.46 2.68zm4.649 44.125c1.785 1.785 4.125 2.676 6.465 2.676s4.68-.89 6.465-2.676l75.558-75.554c3.57-3.57 3.57-9.356 0-12.93-3.574-3.57-9.36-3.57-12.93 0l-75.558 75.554c-3.57 3.57-3.57 9.356 0 12.93zm0 0"/></symbol><symbol viewBox="0 0 512 512" id="drop" xmlns="http://www.w3.org/2000/svg"><path d="M344.031 121.889C306.443 55.963 269.428 7.846 267.871 5.83a15.002 15.002 0 00-23.742 0c-1.557 2.016-38.572 50.133-76.16 116.059C116.896 211.467 91 287.206 91 347c0 90.981 74.019 165 165 165s165-74.019 165-165c0-59.794-25.896-135.533-76.969-225.111zM256 482c-74.439 0-135-60.561-135-135 0-108.714 100.043-257.887 135-306.687C290.958 89.114 391 238.286 391 347c0 74.439-60.561 135-135 135z"/></symbol><symbol viewBox="0 0 469.333 469.333" id="eye" xmlns="http://www.w3.org/2000/svg"><path d="M234.667 170.667c-35.307 0-64 28.693-64 64s28.693 64 64 64 64-28.693 64-64-28.694-64-64-64z"/><path d="M234.667 74.667C128 74.667 36.907 141.013 0 234.667c36.907 93.653 128 160 234.667 160 106.773 0 197.76-66.347 234.667-160-36.907-93.654-127.894-160-234.667-160zm0 266.666c-58.88 0-106.667-47.787-106.667-106.667S175.787 128 234.667 128s106.667 47.787 106.667 106.667-47.787 106.666-106.667 106.666z"/></symbol><symbol viewBox="0 -28 512.001 512" id="heart" xmlns="http://www.w3.org/2000/svg"><path d="M256 455.516a30.022 30.022 0 01-19.793-7.438c-20.684-18.086-40.625-35.082-58.219-50.074l-.09-.078c-51.582-43.957-96.125-81.918-127.117-119.313C16.137 236.81 0 197.172 0 153.871c0-42.07 14.426-80.883 40.617-109.293C67.121 15.832 103.488 0 143.031 0c29.555 0 56.621 9.344 80.446 27.77C235.5 37.07 246.398 48.453 256 61.73c9.605-13.277 20.5-24.66 32.527-33.96C312.352 9.344 339.418 0 368.973 0c39.539 0 75.91 15.832 102.414 44.578C497.578 72.988 512 111.801 512 153.871c0 43.3-16.133 82.938-50.777 124.738-30.993 37.399-75.532 75.356-127.106 119.309-17.625 15.016-37.597 32.039-58.328 50.168a30.046 30.046 0 01-19.789 7.43zM143.031 29.992c-31.066 0-59.605 12.399-80.367 34.914-21.07 22.856-32.676 54.45-32.676 88.965 0 36.418 13.535 68.988 43.883 105.606 29.332 35.394 72.961 72.574 123.477 115.625l.093.078c17.66 15.05 37.68 32.113 58.516 50.332 20.961-18.254 41.012-35.344 58.707-50.418 50.512-43.051 94.137-80.223 123.469-115.617 30.344-36.618 43.879-69.188 43.879-105.606 0-34.516-11.606-66.11-32.676-88.965-20.758-22.515-49.3-34.914-80.363-34.914-22.758 0-43.653 7.235-62.102 21.5-16.441 12.719-27.894 28.797-34.61 40.047-3.452 5.785-9.53 9.238-16.261 9.238s-12.809-3.453-16.262-9.238c-6.71-11.25-18.164-27.328-34.61-40.047-18.448-14.265-39.343-21.5-62.097-21.5zm0 0"/></symbol><symbol viewBox="0 0 512 512" id="heater" xmlns="http://www.w3.org/2000/svg"><path d="M128 119.465h324.266c32.992 0 59.734-26.742 59.734-59.73C512 26.741 485.258 0 452.266 0H59.734C26.758.04.04 26.758 0 59.734v273.067c.04 32.972 26.758 59.695 59.734 59.734h102.399c4.71.004 8.531 3.82 8.535 8.531v51.2c-14.133.015-25.586 11.468-25.602 25.601v8.531c.016 14.133 11.47 25.586 25.602 25.602h51.2c14.132-.016 25.581-11.469 25.597-25.602v-8.53c-.016-14.134-11.465-25.587-25.598-25.602v-51.2c-.039-32.972-26.762-59.695-59.734-59.734H59.734a8.542 8.542 0 01-8.535-8.531V59.734a8.544 8.544 0 018.535-8.535h392.532a8.361 8.361 0 016.086 2.614 8.198 8.198 0 012.449 5.921 8.541 8.541 0 01-8.535 8.532H128C95.023 68.305 68.305 95.023 68.266 128c.039 32.973 26.761 59.695 59.734 59.734h324.266a8.361 8.361 0 016.086 2.614 8.196 8.196 0 012.449 5.918 8.544 8.544 0 01-8.535 8.535H128c-32.977.035-59.695 26.758-59.734 59.734.039 32.973 26.761 59.695 59.734 59.73h324.266a8.361 8.361 0 016.086 2.614 8.198 8.198 0 012.449 5.922c-.004 4.71-3.824 8.527-8.535 8.531h-93.868c-32.972.04-59.695 26.762-59.73 59.734v51.2c-14.133.015-25.586 11.468-25.602 25.601v8.531c.016 14.133 11.47 25.586 25.602 25.602h51.2c14.132-.016 25.581-11.469 25.597-25.602v-8.53c-.016-14.134-11.465-25.587-25.598-25.602v-51.2a8.537 8.537 0 018.531-8.53h93.868c32.976-.04 59.699-26.763 59.734-59.735-.04-32.977-26.758-59.696-59.734-59.735H128a8.346 8.346 0 01-6.082-2.613 8.2 8.2 0 01-2.453-5.918c.008-4.715 3.824-8.531 8.535-8.535h324.266c32.976-.035 59.699-26.758 59.734-59.734-.04-32.973-26.758-59.696-59.734-59.73H128a8.346 8.346 0 01-6.082-2.614 8.215 8.215 0 01-2.453-5.922 8.549 8.549 0 018.535-8.535zm102.398 358.402v8.531c-.003 4.711-3.82 8.532-8.53 8.536h-51.2a8.544 8.544 0 01-8.535-8.536v-8.53a8.544 8.544 0 018.535-8.536h51.2c4.71.004 8.527 3.824 8.53 8.535zm128 0v8.531c-.003 4.711-3.82 8.532-8.53 8.536h-51.2a8.544 8.544 0 01-8.535-8.536v-8.53a8.544 8.544 0 018.535-8.536h51.2c4.71.004 8.527 3.824 8.53 8.535zM109.86 145.992a25.135 25.135 0 0018.141 7.61h324.266c23.554.027 42.64 19.113 42.668 42.664-.04 23.55-19.118 42.629-42.668 42.668H128c-14.133.015-25.586 11.468-25.602 25.601.067 14.11 11.493 25.531 25.602 25.598h324.266c23.554.027 42.64 19.113 42.668 42.668-.04 23.547-19.118 42.629-42.668 42.664h-93.868c-14.128.015-25.582 11.469-25.597 25.601v51.2h-17.067v-51.2c.028-23.55 19.114-42.636 42.664-42.668h93.868c14.132-.015 25.586-11.464 25.601-25.597-.066-14.113-11.488-25.535-25.601-25.602H128c-23.55-.027-42.64-19.113-42.668-42.664.04-23.55 19.121-42.633 42.668-42.668h324.266c14.132-.015 25.586-11.469 25.601-25.601-.066-14.11-11.488-25.532-25.601-25.598H128c-23.55-.027-42.64-19.117-42.668-42.668.04-23.547 19.121-42.629 42.668-42.668h324.266c14.132-.016 25.586-11.465 25.601-25.598-.066-14.113-11.488-25.535-25.601-25.601H59.734c-14.132.015-25.586 11.469-25.601 25.601v273.067c.015 14.133 11.469 25.582 25.601 25.597h102.399c23.554.032 42.64 19.118 42.668 42.668v51.2h-17.067v-51.2c-.015-14.132-11.468-25.586-25.601-25.601H59.734c-23.554-.027-42.64-19.113-42.668-42.664V59.734c.028-23.554 19.114-42.64 42.668-42.668h392.532c23.566 0 42.668 19.102 42.668 42.668 0 23.563-19.102 42.664-42.668 42.664H128c-14.133.016-25.586 11.47-25.602 25.602a24.97 24.97 0 007.461 17.992zm0 0"/></symbol><symbol viewBox="-88 0 512 512" id="light" xmlns="http://www.w3.org/2000/svg"><path d="M287.16 49.898C255.992 18.332 214.41.613 170.082.016c-44.687-.582-86.965 16.316-119.18 47.652C18.68 79.012.61 120.855.016 165.492c-.582 43.692 15.558 85.281 45.441 117.098 17.09 18.191 26.5 41.847 26.5 66.605v56.418c0 25.535 18.277 46.875 42.438 51.64v1.372c0 29.43 23.945 53.375 53.375 53.375 29.433 0 53.375-23.945 53.375-53.375v-1.371c24.16-4.766 42.437-26.106 42.437-51.64v-56.419c0-24.812 9.348-48.398 26.324-66.418C319.332 251.54 335.54 210.7 335.54 167.77c0-44.41-17.184-86.27-48.379-117.872zM127.406 197.445h-14.484c-7.988 0-14.485-6.5-14.485-14.484 0-7.988 6.497-14.484 14.485-14.484 7.984 0 14.484 6.5 14.484 14.484zm30.387 30.387h19.953v106.172h-19.953zm32.965 230.793c0 12.676-10.313 22.988-22.988 22.988s-22.989-10.312-22.989-22.988v-.371h45.977zm42.437-53.012c0 12.27-9.984 22.254-22.254 22.254h-86.343c-12.27 0-22.254-9.984-22.254-22.254v-41.222h130.851zm34.594-143.672c-18.809 19.965-30.492 45.125-33.695 72.063h-25.961V227.832h14.484c24.742 0 44.871-20.129 44.871-44.871s-20.129-44.871-44.87-44.871c-24.743 0-44.872 20.129-44.872 44.87v14.485h-19.953v-14.484c0-24.742-20.129-44.871-44.871-44.871S68.05 158.219 68.05 182.96c0 24.743 20.129 44.872 44.87 44.872h14.485v106.172H101.44c-3.222-26.902-14.953-52.113-33.832-72.219-24.472-26.05-37.683-60.105-37.207-95.89.485-36.512 15.29-70.766 41.688-96.446 26.398-25.676 61.02-39.55 97.582-39.05 74.703 1.011 135.48 62.636 135.48 137.37 0 35.153-13.27 68.594-37.363 94.172zm-59.656-64.496v-14.484c0-7.988 6.5-14.484 14.484-14.484 7.988 0 14.485 6.5 14.485 14.484s-6.497 14.484-14.485 14.484zm0 0"/></symbol><symbol viewBox="0 0 512 512" id="like" xmlns="http://www.w3.org/2000/svg"><path d="M512 304c0-12.821-5.099-24.768-13.888-33.579 9.963-10.901 15.04-25.515 13.653-40.725-2.496-27.115-26.923-48.363-55.637-48.363H324.352c6.528-19.819 16.981-56.149 16.981-85.333 0-46.272-39.317-85.333-64-85.333-22.144 0-37.995 12.48-38.656 12.992A10.672 10.672 0 00234.666 32v72.341L173.205 237.44l-2.539 1.301v-4.075c0-5.888-4.779-10.667-10.667-10.667H53.333C23.915 224 0 247.915 0 277.333V448c0 29.419 23.915 53.333 53.333 53.333h64c23.061 0 42.773-14.72 50.197-35.264C185.28 475.2 209.173 480 224 480h195.819c23.232 0 43.563-15.659 48.341-37.248 2.453-11.136 1.024-22.336-3.84-32.064 15.744-7.915 26.347-24.192 26.347-42.688 0-7.552-1.728-14.784-4.992-21.312C501.419 338.752 512 322.496 512 304zm-44.992 26.325a10.719 10.719 0 00-8.917 7.232 10.688 10.688 0 002.816 11.136c5.419 5.099 8.427 11.968 8.427 19.307 0 13.461-10.176 24.768-23.637 26.325a10.719 10.719 0 00-8.917 7.232 10.688 10.688 0 002.816 11.136c7.019 6.613 9.835 15.893 7.723 25.451-2.624 11.904-14.187 20.523-27.499 20.523H224c-17.323 0-46.379-8.128-56.448-18.219-3.051-3.029-7.659-3.925-11.627-2.304a10.667 10.667 0 00-6.592 9.856c0 17.643-14.357 32-32 32h-64c-17.643 0-32-14.357-32-32V277.333c0-17.643 14.357-32 32-32h96V256c0 3.691 1.92 7.125 5.077 9.088a10.902 10.902 0 0010.368.448l21.333-10.667a10.65 10.65 0 004.907-5.056l64-138.667c.64-1.408.981-2.944.981-4.48V37.781c4.438-2.453 12.14-5.781 21.334-5.781C289.024 32 320 61.056 320 96c0 37.547-20.437 91.669-20.629 92.203a10.739 10.739 0 001.173 9.856 10.728 10.728 0 008.789 4.608h146.795c17.792 0 32.896 12.736 34.389 28.992 1.131 12.16-4.715 23.723-15.189 30.187-3.264 2.005-5.205 5.632-5.056 9.493s2.368 7.317 5.781 9.088c9.024 4.587 14.613 13.632 14.613 23.573.001 13.461-10.175 24.768-23.658 26.325z"/><path d="M160 245.333c-5.888 0-10.667 4.779-10.667 10.667v192c0 5.888 4.779 10.667 10.667 10.667s10.667-4.779 10.667-10.667V256c0-5.888-4.779-10.667-10.667-10.667z"/></symbol><symbol viewBox="0 0 512 512" id="mouse" xmlns="http://www.w3.org/2000/svg"><path d="M256 0C156.595 0 75.726 82.14 75.726 183.099v145.807C75.726 429.865 156.595 512 256 512c99.399 0 180.274-81.886 180.274-182.534V183.099C436.274 82.14 355.399 0 256 0zm146.366 329.466c0 81.954-65.656 148.627-146.366 148.627-80.705 0-146.366-66.927-146.366-149.192V183.099c0-82.265 65.661-149.192 146.366-149.192 80.711 0 146.366 66.927 146.366 149.192v146.367z"/><path d="M256 140.15c-9.364 0-16.954 7.59-16.954 16.954v59.338c0 9.364 7.59 16.954 16.954 16.954s16.954-7.59 16.954-16.954v-59.338c0-9.364-7.59-16.954-16.954-16.954z"/></symbol><symbol viewBox="0 0 24 24" id="odnoklassniki" xmlns="http://www.w3.org/2000/svg"><path d="M4.721 12.881c-.613 1.205.083 1.781 1.671 2.765 1.35.834 3.215 1.139 4.413 1.261l-4.721 4.541c-1.374 1.317.838 3.43 2.211 2.141l3.717-3.585c1.423 1.369 2.787 2.681 3.717 3.59 1.374 1.294 3.585-.801 2.226-2.141-.102-.097-5.037-4.831-4.736-4.541 1.213-.122 3.05-.445 4.384-1.261l-.001-.001c1.588-.989 2.284-1.564 1.68-2.769-.365-.684-1.349-1.256-2.659-.267 0 0-1.769 1.355-4.622 1.355-2.854 0-4.622-1.355-4.622-1.355-1.309-.994-2.297-.417-2.658.267z"/><path d="M11.999 12.142c3.478 0 6.318-2.718 6.318-6.064 0-3.36-2.84-6.078-6.318-6.078C8.52 0 5.68 2.718 5.68 6.078c0 3.346 2.84 6.064 6.319 6.064zm0-9.063c1.709 0 3.103 1.341 3.103 2.999 0 1.644-1.394 2.985-3.103 2.985S8.896 7.722 8.896 6.078c-.001-1.659 1.393-2.999 3.103-2.999z"/></symbol><symbol viewBox="0 0 375.147 375.147" id="tick" xmlns="http://www.w3.org/2000/svg"><path d="M344.96 44.48L119.147 270.293l-88.96-88.96L0 211.52l119.147 119.147 256-256z"/></symbol><symbol viewBox="0 0 60 60" id="timer" xmlns="http://www.w3.org/2000/svg"><path d="M30 0a1 1 0 00-1 1v13.292a1 1 0 102 0V2.018C45.979 2.546 58 14.896 58 30c0 15.439-12.561 28-28 28S2 45.439 2 30c0-7.46 2.9-14.479 8.166-19.764A.999.999 0 108.75 8.824C3.107 14.486 0 22.007 0 30c0 16.542 13.458 30 30 30s30-13.458 30-30S46.542 0 30 0z"/><path d="M28.555 33.532A3.575 3.575 0 0031.438 35a3.54 3.54 0 002.518-1.044 3.56 3.56 0 00-.426-5.403L20.586 19.19a1 1 0 00-1.397 1.397l9.366 12.945z"/></symbol><symbol viewBox="0 0 508 508" id="umb" xmlns="http://www.w3.org/2000/svg"><path d="M262.2 24.8V0h-16.4v24.8C114.1 29.1 8.2 137.6 8.2 270.4v14.1L73.8 247l57.4 32.8 57.6-32.9 57.1 28.6V467c0 13.6-11 24.6-24.6 24.6-13.6 0-24.6-11-24.6-24.6v-24.6h-16.4V467c0 22.6 18.4 41 41 41s41-18.4 41-41V275.5l57.1-28.6 59 32.9 55.9-32.7 65.5 37.4v-14.1c0-132.8-105.9-241.3-237.6-245.6zM123.3 256.5l-49.5-28.3L25 256c7-111.6 94-201.8 204.3-213.7-64.1 53.8-102.1 130.8-106 214.2zm122.5.5l-57.6-28.7-48.5 27.7c4-80.5 41.9-154.8 105.3-205.6l.8-.7V257zm74-28.7l-57.6 28.8V49.8l.8.7c63.3 50.6 101.1 124.6 105.3 204.9l-48.5-27.1zm114.4-.2l-49.5 29C381 173.5 343 96.3 278.7 42.3 389 54.2 476 144.4 483 256l-48.8-27.9z"/></symbol><symbol viewBox="0 0 511.962 511.962" id="vk" xmlns="http://www.w3.org/2000/svg"><path d="M507.399 370.471c-1.376-2.304-9.888-20.8-50.848-58.816-42.88-39.808-37.12-33.344 14.528-102.176 31.456-41.92 44.032-67.52 40.096-78.464-3.744-10.432-26.88-7.68-26.88-7.68l-76.928.448s-5.696-.768-9.952 1.76c-4.128 2.496-6.784 8.256-6.784 8.256s-12.192 32.448-28.448 60.032c-34.272 58.208-48 61.28-53.6 57.664-13.024-8.416-9.76-33.856-9.76-51.904 0-56.416 8.544-79.936-16.672-86.016-8.384-2.016-14.528-3.36-35.936-3.584-27.456-.288-50.72.096-63.872 6.528-8.768 4.288-15.52 13.856-11.392 14.4 5.088.672 16.608 3.104 22.72 11.424 7.904 10.72 7.616 34.848 7.616 34.848s4.544 66.4-10.592 74.656c-10.4 5.664-24.64-5.888-55.2-58.72-15.648-27.04-27.488-56.96-27.488-56.96s-2.272-5.568-6.336-8.544c-4.928-3.616-11.84-4.768-11.84-4.768l-73.152.448s-10.976.32-15.008 5.088c-3.584 4.256-.288 13.024-.288 13.024s57.28 133.984 122.112 201.536c59.488 61.92 127.008 57.856 127.008 57.856h30.592s9.248-1.024 13.952-6.112c4.352-4.672 4.192-13.44 4.192-13.44s-.608-41.056 18.464-47.104c18.784-5.952 42.912 39.68 68.48 57.248 19.328 13.28 34.016 10.368 34.016 10.368l68.384-.96s35.776-2.208 18.816-30.336z"/></symbol><symbol viewBox="0 0 512 512" id="water" xmlns="http://www.w3.org/2000/svg"><path d="M377 182h-62.979A106.209 106.209 0 00286 162.358V105h7.457c7.745 0 15.118 1.949 21.914 5.794C325.257 116.386 337.28 120 346 120c33.084 0 60-26.916 60-60S379.084 0 346 0c-8.743 0-20.786 3.624-30.68 9.233C308.57 13.06 301.181 15 293.359 15H188.641c-7.711 0-15.306-1.994-21.96-5.767C156.786 3.624 144.743 0 136 0c-33.084 0-60 26.916-60 60s26.916 60 60 60c8.721 0 20.744-3.614 30.63-9.207 6.7-3.79 14.277-5.793 21.913-5.793H196v57.358A106.192 106.192 0 00167.979 182H87.42c-6.192-17.459-22.865-30-42.42-30H15c-8.284 0-15 6.716-15 15v180c0 8.284 6.716 15 15 15h30c19.555 0 36.228-12.541 42.42-30h80.559c19.62 19.144 45.866 30 73.021 30s53.401-10.856 73.021-30H347c8.271 0 15 6.729 15 15v30c0 8.284 6.716 15 15 15h120c8.284 0 15-6.716 15-15v-60c0-74.439-60.561-135-135-135zM60 317c0 8.271-6.729 15-15 15H30V182h15c8.271 0 15 6.729 15 15v120zM188.543 75c-12.802 0-25.487 3.348-36.685 9.682C145.215 88.44 138.252 90 136 90c-16.542 0-30-13.458-30-30s13.458-30 30-30c2.26 0 9.239 1.564 15.886 5.332C163.043 41.657 175.753 45 188.641 45H293.36c12.887 0 25.597-3.343 36.755-9.668C336.761 31.564 343.74 30 346 30c16.542 0 30 13.458 30 30s-13.458 30-30 30c-2.251 0-9.215-1.56-15.858-5.318C318.945 78.348 306.259 75 293.457 75H271c-8.284 0-15 6.716-15 15v63.109c-4.944-.733-9.956-1.109-15-1.109s-10.056.376-15 1.109V90c0-8.284-6.716-15-15-15h-22.457zM482 362h-90v-15c0-24.813-20.187-45-45-45h-39.357c-4.25 0-8.3 1.803-11.145 4.96C281.952 323.107 262.242 332 241 332s-40.952-8.893-55.499-25.04a15.001 15.001 0 00-11.145-4.96H90v-90h84.357c4.25 0 8.3-1.803 11.145-4.96C200.048 190.893 219.758 182 241 182s40.952 8.893 55.499 25.04a15.001 15.001 0 0011.145 4.96H377c57.897 0 105 47.103 105 105v45z"/><path d="M464.975 423.26c-7.708-13.288-15.313-24.322-15.633-24.785a15 15 0 00-24.684 0c-.32.463-7.925 11.497-15.633 24.785C393.765 449.566 392 460.822 392 467c0 24.813 20.187 45 45 45s45-20.187 45-45c0-6.178-1.765-17.434-17.025-43.74zM437 482c-8.271 0-15-6.729-15-14.983.122-4.585 6.362-17.658 15.003-32.216 8.633 14.543 14.869 27.609 14.997 32.211-.006 8.265-6.733 14.988-15 14.988z"/></symbol></svg>