<?xml version="1.0" encoding="utf-8"?><svg xmlns="http://www.w3.org/2000/svg" xmlns:xlink="http://www.w3.org/1999/xlink"><symbol viewBox="0 -8 480 480" id="cal" xmlns="http://www.w3.org/2000/svg"><path d="M344 192c-75.11 0-136 60.89-136 136s60.89 136 136 136 136-60.89 136-136c-.082-75.074-60.926-135.918-136-136zm0 256c-66.273 0-120-53.727-120-120s53.727-120 120-120 120 53.727 120 120c-.074 66.242-53.758 119.926-120 120zm0 0"/><path d="M352 305.473V256h-16v49.473A23.977 23.977 0 0 0 321.473 320H288v16h33.473c3.699 10.531 14.187 17.11 25.28 15.855a23.949 23.949 0 0 0 21.102-21.101c1.254-11.094-5.324-21.582-15.855-25.281zM344 336a8 8 0 1 1 0-16 8 8 0 0 1 0 16zm-104-16h16v16h-16zm96 96h16v16h-16zm96-96h16v16h-16zm-96-96h16v16h-16zm0 0"/><path d="M16 344V112h368v72h16V72c-.027-22.082-17.918-39.973-40-40h-56v-8c0-13.254-10.746-24-24-24s-24 10.746-24 24v8H144v-8c0-13.254-10.746-24-24-24S96 10.746 96 24v8H40C17.918 32.027.027 49.918 0 72v272c.027 22.082 17.918 39.973 40 40h160v-16H40c-13.254 0-24-10.746-24-24zM272 24a8 8 0 0 1 16 0v32a8 8 0 0 1-16 0zm-160 0a8 8 0 0 1 16 0v32a8 8 0 0 1-16 0zM40 48h56v8c0 13.254 10.746 24 24 24s24-10.746 24-24v-8h112v8c0 13.254 10.746 24 24 24s24-10.746 24-24v-8h56c13.254 0 24 10.746 24 24v24H16V72c0-13.254 10.746-24 24-24zm0 0"/><path d="M112 176c0-8.836-7.164-16-16-16H64c-8.836 0-16 7.164-16 16v32c0 8.836 7.164 16 16 16h32c8.836 0 16-7.164 16-16zm-48 32v-32h32v32zm128-32c0-8.836-7.164-16-16-16h-32c-8.836 0-16 7.164-16 16v32c0 8.836 7.164 16 16 16h32c8.836 0 16-7.164 16-16zm-48 32v-32h32v32zm128-8v-24c0-8.836-7.164-16-16-16h-32c-8.836 0-16 7.164-16 16v32c0 8.836 7.164 16 16 16h16v-16h-16v-32h32v24zM96 256H64c-8.836 0-16 7.164-16 16v32c0 8.836 7.164 16 16 16h32c8.836 0 16-7.164 16-16v-32c0-8.836-7.164-16-16-16zm-32 48v-32h32v32zm112-48h-32c-8.836 0-16 7.164-16 16v32c0 8.836 7.164 16 16 16h32c8.836 0 16-7.164 16-16v-32c0-8.836-7.164-16-16-16zm-32 48v-32h32v32zm208-120v-8c0-8.836-7.164-16-16-16h-32c-8.836 0-16 7.164-16 16v8h16v-8h32v8zm0 0"/></symbol><symbol viewBox="0 0 60 60" id="loc" xmlns="http://www.w3.org/2000/svg"><path d="M30 26c3.86 0 7-3.141 7-7s-3.14-7-7-7-7 3.141-7 7 3.14 7 7 7zm0-12c2.757 0 5 2.243 5 5s-2.243 5-5 5-5-2.243-5-5 2.243-5 5-5z"/><path d="M29.823 54.757L45.164 32.6c5.754-7.671 4.922-20.28-1.781-26.982C39.761 1.995 34.945 0 29.823 0s-9.938 1.995-13.56 5.617c-6.703 6.702-7.535 19.311-1.804 26.952l15.364 22.188zM17.677 7.031C20.922 3.787 25.235 2 29.823 2s8.901 1.787 12.146 5.031c6.05 6.049 6.795 17.437 1.573 24.399L29.823 51.243 16.082 31.4c-5.2-6.932-4.454-18.32 1.595-24.369z"/><path d="M42.117 43.007a1 1 0 0 0-.234 1.986C52.399 46.231 58 49.567 58 51.5c0 2.714-10.652 6.5-28 6.5S2 54.214 2 51.5c0-1.933 5.601-5.269 16.117-6.507a1 1 0 0 0-.234-1.986C7.354 44.247 0 47.739 0 51.5 0 55.724 10.305 60 30 60s30-4.276 30-8.5c0-3.761-7.354-7.253-17.883-8.493z"/></symbol><symbol viewBox="0 0 612.011 612.011" id="mail" xmlns="http://www.w3.org/2000/svg"><path d="M612 156.232c0-13.065-5.16-24.885-13.393-33.897-.137-.179-.168-.39-.316-.57-.137-.158-.327-.222-.475-.369-9.361-9.794-22.553-15.988-37.243-15.988H51.437c-14.69 0-27.882 6.194-37.264 15.988-.137.147-.338.211-.475.38-.148.169-.179.39-.316.57C5.161 131.358 0 143.167 0 156.232v299.546c0 13.382 5.372 25.486 13.962 34.573.169.189.222.422.412.602.063.063.137.073.201.137 9.361 9.541 22.394 15.514 36.863 15.514h509.136c14.469 0 27.513-5.983 36.863-15.523.063-.054.137-.074.2-.127.18-.169.232-.401.401-.581 8.601-9.086 13.973-21.201 13.973-34.594V156.232H612zM411.687 290.175l176.368-146.238c1.73 3.757 2.754 7.904 2.754 12.294v299.546c0 3.969-.823 7.736-2.248 11.208l-176.874-176.81zm148.886-163.82c4.443 0 8.633 1.013 12.442 2.723l-267.01 221.378-267.01-221.378c3.81-1.709 8-2.723 12.442-2.723h509.136zM23.45 466.976c-1.425-3.461-2.248-7.239-2.248-11.208V156.232c0-4.39 1.024-8.538 2.754-12.294l176.368 146.238-176.874 176.8zm27.987 18.669c-4.896 0-9.456-1.267-13.55-3.313l178.731-178.658 82.58 68.471a10.63 10.63 0 0 0 6.807 2.459 10.63 10.63 0 0 0 6.807-2.459l82.58-68.471 178.731 178.658c-4.095 2.047-8.653 3.313-13.551 3.313H51.437z"/></symbol><symbol viewBox="0 0 512.076 512.076" id="phone" xmlns="http://www.w3.org/2000/svg"><path d="M498.639 395.039l-103.646-69.12c-13.153-8.701-30.784-5.838-40.508 6.579l-30.191 38.818a12.903 12.903 0 0 1-16.546 3.482l-5.743-3.166c-19.038-10.377-42.726-23.296-90.453-71.04s-60.672-71.45-71.049-90.453l-3.149-5.743a12.92 12.92 0 0 1 3.413-16.606l38.792-30.182c12.412-9.725 15.279-27.351 6.588-40.508l-69.12-103.646C108.12.056 90.25-3.966 76.461 4.323L33.12 30.358A61.136 61.136 0 0 0 5.242 66.539c-15.607 56.866-3.866 155.008 140.706 299.597 115.004 114.995 200.619 145.92 259.465 145.92a151.181 151.181 0 0 0 40.107-5.239 61.079 61.079 0 0 0 36.181-27.878l26.061-43.315c8.301-13.792 4.281-31.673-9.123-40.585zm-5.581 31.829l-26.001 43.341a44.103 44.103 0 0 1-26.027 20.173c-52.497 14.413-144.213 2.475-283.008-136.32S7.29 123.559 21.703 71.054a44.17 44.17 0 0 1 20.198-26.061l43.341-26.001c5.983-3.6 13.739-1.855 17.604 3.959l37.547 56.371 31.514 47.266c3.774 5.707 2.534 13.356-2.85 17.579l-38.801 30.182c-11.808 9.029-15.18 25.366-7.91 38.332l3.081 5.598c10.906 20.002 24.465 44.885 73.967 94.379 49.502 49.493 74.377 63.053 94.37 73.958l5.606 3.089c12.965 7.269 29.303 3.898 38.332-7.91l30.182-38.801c4.224-5.381 11.87-6.62 17.579-2.85l103.637 69.12c5.818 3.862 7.563 11.622 3.958 17.604zM290.161 85.39c80.081.089 144.977 64.986 145.067 145.067 0 4.713 3.82 8.533 8.533 8.533s8.533-3.82 8.533-8.533c-.099-89.503-72.63-162.035-162.133-162.133-4.713 0-8.533 3.82-8.533 8.533s3.82 8.533 8.533 8.533z"/><path d="M290.161 136.59c51.816.061 93.806 42.051 93.867 93.867a8.533 8.533 0 0 0 17.066 0c-.071-61.238-49.696-110.863-110.933-110.933-4.713 0-8.533 3.82-8.533 8.533s3.82 8.533 8.533 8.533z"/><path d="M290.161 187.79c23.552.028 42.638 19.114 42.667 42.667a8.533 8.533 0 0 0 17.066 0c-.038-32.974-26.759-59.696-59.733-59.733-4.713 0-8.533 3.82-8.533 8.533s3.82 8.533 8.533 8.533z"/></symbol></svg>