<?xml version="1.0" encoding="utf-8"?><svg xmlns="http://www.w3.org/2000/svg" xmlns:xlink="http://www.w3.org/1999/xlink"><symbol viewBox="0 0 8 9" id="arrow-down" xmlns="http://www.w3.org/2000/svg"><g clip-path="url(#aclip0)"><path d="M4.157 5.73L7.967.968a.146.146 0 0 0 .011-.17A.196.196 0 0 0 7.81.71H.19a.197.197 0 0 0-.168.088A.147.147 0 0 0 0 .875a.15.15 0 0 0 .034.093l3.81 4.762A.2.2 0 0 0 4 5.801a.201.201 0 0 0 .157-.07z"/></g><defs><clipPath id="aclip0"><path transform="rotate(90 3.669 4.331)" d="M0 0h8v8H0z"/></clipPath></defs></symbol><symbol viewBox="0 0 16 11" id="arrow-right" xmlns="http://www.w3.org/2000/svg"><path d="M1.158 6.195h12.134l-2.896 2.93a.662.662 0 0 0 0 .928.644.644 0 0 0 .918 0l4.004-4.05a.662.662 0 0 0 0-.929l-4.003-4.05a.643.643 0 0 0-.919 0 .662.662 0 0 0 0 .929l2.896 2.929H1.158a.653.653 0 0 0-.65.657c0 .362.291.656.65.656z"/></symbol><symbol viewBox="0 0 11 11" id="clock" xmlns="http://www.w3.org/2000/svg"><g clip-path="url(#cclip0)"><path d="M10.56 3.359C9.982 2.007 8.996 1.024 7.633.442A5.406 5.406 0 0 0 5.491.003a5.35 5.35 0 0 0-2.135.44C2.004 1.021 1.014 2.004.433 3.358A5.352 5.352 0 0 0 0 5.494c0 .746.142 1.463.433 2.141a5.418 5.418 0 0 0 2.923 2.923 5.35 5.35 0 0 0 2.135.439 5.41 5.41 0 0 0 2.141-.439 5.397 5.397 0 0 0 2.929-2.923A5.38 5.38 0 0 0 11 5.494c0-.746-.147-1.454-.44-2.135zm-.877 4.565a4.825 4.825 0 0 1-1.768 1.762c-.74.432-1.552.65-2.424.65a4.658 4.658 0 0 1-1.876-.385 4.917 4.917 0 0 1-1.54-1.029 4.884 4.884 0 0 1-1.028-1.546 4.735 4.735 0 0 1-.38-1.882c0-.872.215-1.68.644-2.418a4.828 4.828 0 0 1 1.762-1.762 4.7 4.7 0 0 1 2.418-.65c.872 0 1.683.218 2.424.65a4.84 4.84 0 0 1 1.768 1.762c.433.74.65 1.546.65 2.418a4.75 4.75 0 0 1-.65 2.43z"/><path d="M5.84 5.446V2.33a.347.347 0 0 0-.35-.336c-.173 0-.33.15-.33.336v3.164c0 .006.012.03.012.048a.314.314 0 0 0 .09.27l1.799 1.8c.12.12.343.12.463 0a.324.324 0 0 0 0-.47L5.84 5.446z"/></g><defs><clipPath id="cclip0"><path d="M0 0h11v11H0z"/></clipPath></defs></symbol><symbol viewBox="0 0 47.971 47.971" id="close" xmlns="http://www.w3.org/2000/svg"><path d="M28.228 23.986L47.092 5.122a2.998 2.998 0 0 0 0-4.242 2.998 2.998 0 0 0-4.242 0L23.986 19.744 5.121.88a2.998 2.998 0 0 0-4.242 0 2.998 2.998 0 0 0 0 4.242l18.865 18.864L.879 42.85a2.998 2.998 0 1 0 4.242 4.241l18.865-18.864L42.85 47.091c.586.586 1.354.879 2.121.879s1.535-.293 2.121-.879a2.998 2.998 0 0 0 0-4.242L28.228 23.986z"/></symbol><symbol viewBox="0 0 11 12" id="global" xmlns="http://www.w3.org/2000/svg"><g clip-path="url(#eclip0)"><path d="M10.397 3.163a5.505 5.505 0 0 0-4.897-3A5.504 5.504 0 0 0 .603 3.165l-.011.02A5.464 5.464 0 0 0 0 5.664c0 .89.214 1.732.592 2.477l.01.02A5.504 5.504 0 0 0 5.5 11.164a5.505 5.505 0 0 0 4.897-3c.004-.008.009-.015.012-.024A5.463 5.463 0 0 0 11 5.663c0-.89-.214-1.732-.591-2.477l-.012-.023zm-.367 4.652H7.928c.117-.59.186-1.234.2-1.913h2.382a4.979 4.979 0 0 1-.48 1.913zm-4.53 2.87c-.756 0-1.435-.97-1.82-2.392h3.64c-.385 1.422-1.064 2.392-1.82 2.392zm-1.934-2.87a10.426 10.426 0 0 1-.213-1.913h4.294c-.015.678-.09 1.325-.213 1.913H3.566zM.49 5.902h2.382c.014.68.083 1.324.2 1.913H.97a4.978 4.978 0 0 1-.48-1.913zM.97 3.51h2.102a11.03 11.03 0 0 0-.2 1.913H.49c.033-.683.2-1.329.48-1.913zM5.5.64c.756 0 1.435.97 1.82 2.391H3.68C4.065 1.611 4.744.641 5.5.641zm1.934 2.87c.123.587.198 1.234.213 1.913H3.353c.015-.679.09-1.326.213-1.913h3.868zm.694 1.913a10.997 10.997 0 0 0-.2-1.913h2.102c.28.584.447 1.23.48 1.913H8.128zm1.641-2.392H7.82C7.578 2.084 7.207 1.31 6.752.806A5.031 5.031 0 0 1 9.77 3.032zM4.247.806c-.454.504-.825 1.278-1.067 2.226H1.23A5.033 5.033 0 0 1 4.247.806zM1.231 8.293H3.18c.242.949.613 1.723 1.067 2.227a5.033 5.033 0 0 1-3.016-2.227zm5.522 2.227c.454-.504.825-1.278 1.067-2.227h1.95a5.033 5.033 0 0 1-3.017 2.227z"/></g><defs><clipPath id="eclip0"><path transform="translate(0 .163)" d="M0 0h11v11H0z"/></clipPath></defs></symbol><symbol viewBox="0 0 13 14" id="location" xmlns="http://www.w3.org/2000/svg"><g clip-path="url(#fclip0)"><path d="M6.5.5a4.575 4.575 0 0 0-3.888 6.974L6.24 13.32a.38.38 0 0 0 .323.18h.003a.38.38 0 0 0 .324-.185l3.536-5.903a4.565 4.565 0 0 0 .644-2.342C11.07 2.55 9.02.5 6.5.5zm3.272 6.52l-3.214 5.367-3.299-5.315a3.804 3.804 0 0 1-.573-2.002c0-2.1 1.714-3.813 3.814-3.813a3.82 3.82 0 0 1 3.811 3.813c0 .689-.188 1.363-.539 1.95z"/><path d="M6.5 2.785A2.288 2.288 0 0 0 4.215 5.07 2.282 2.282 0 0 0 6.5 7.355 2.28 2.28 0 0 0 8.785 5.07 2.288 2.288 0 0 0 6.5 2.785zm0 3.814A1.53 1.53 0 0 1 4.971 5.07c0-.84.689-1.528 1.529-1.528s1.526.688 1.526 1.528c0 .83-.668 1.53-1.526 1.53z"/></g><defs><clipPath id="fclip0"><path transform="translate(0 .5)" d="M0 0h13v13H0z"/></clipPath></defs></symbol><symbol viewBox="0 0 29 18" id="next" xmlns="http://www.w3.org/2000/svg"><path d="M1.851 10.201h22.404l-5.346 5.433a1.232 1.232 0 0 0 0 1.724 1.185 1.185 0 0 0 1.695 0l7.392-7.514a1.232 1.232 0 0 0 0-1.723L20.604.608a1.185 1.185 0 0 0-1.695 0 1.232 1.232 0 0 0 0 1.723l5.346 5.434H1.85c-.662 0-1.199.545-1.199 1.218 0 .673.537 1.218 1.2 1.218z"/></symbol><symbol viewBox="0 0 28 18" id="prev" xmlns="http://www.w3.org/2000/svg"><path d="M26.684 7.799H4.28l5.345-5.434a1.232 1.232 0 0 0 0-1.722 1.185 1.185 0 0 0-1.695 0L.539 8.156a1.232 1.232 0 0 0 0 1.723l7.392 7.513a1.185 1.185 0 0 0 1.695 0 1.232 1.232 0 0 0 0-1.723l-5.345-5.434h22.403c.662 0 1.199-.545 1.199-1.218 0-.673-.537-1.218-1.2-1.218z"/></symbol><symbol viewBox="0 0 24 24" id="search" xmlns="http://www.w3.org/2000/svg"><path d="M23.788 22.776l-5.832-5.832a10.192 10.192 0 0 0 2.512-6.71C20.468 4.586 15.876 0 10.235 0 4.589 0 0 4.592 0 10.233c0 5.641 4.593 10.233 10.234 10.233 2.565 0 4.911-.947 6.71-2.511l5.832 5.832a.723.723 0 0 0 .506.213.72.72 0 0 0 .505-1.224zM1.433 10.233c0-4.853 3.948-8.796 8.796-8.796 4.854 0 8.797 3.948 8.797 8.796 0 4.848-3.943 8.802-8.797 8.802-4.848 0-8.796-3.949-8.796-8.802z"/></symbol></svg>