<?xml version="1.0" encoding="utf-8"?><svg xmlns="http://www.w3.org/2000/svg" xmlns:xlink="http://www.w3.org/1999/xlink"><symbol viewBox="-38 0 512 512.001" id="done" xmlns="http://www.w3.org/2000/svg"><path d="M435.488 138.918l-.015-.398a533.678 533.678 0 01-.461-15.91c-.418-28.231-22.86-51.583-51.094-53.16-58.867-3.286-104.406-22.481-143.316-60.407l-.332-.316c-12.692-11.637-31.836-11.637-44.532 0l-.332.316c-38.91 37.926-84.449 57.121-143.316 60.41C23.86 71.027 1.414 94.38.996 122.613a527.685 527.685 0 01-.46 15.907l-.024.925C-.633 199.473-2.055 274.18 22.937 341.988c13.743 37.29 34.555 69.703 61.856 96.348 31.094 30.344 71.82 54.434 121.047 71.598a37.432 37.432 0 004.96 1.351c2.391.477 4.798.715 7.204.715 2.406 0 4.816-.238 7.203-.715a37.463 37.463 0 004.98-1.36c49.168-17.195 89.852-41.296 120.918-71.636 27.29-26.652 48.102-59.074 61.856-96.371 25.086-68.012 23.668-142.86 22.527-203zm-50.715 192.605c-26.359 71.47-80.168 120.551-164.5 150.043-.3.102-.62.192-.953.258a6.751 6.751 0 01-2.64-.004 7.599 7.599 0 01-.946-.254C131.312 452.13 77.47 403.074 51.13 331.602 28.094 269.098 29.399 200.52 30.55 140.02l.008-.336c.234-5.2.39-10.645.476-16.63.188-12.534 10.172-22.906 22.73-23.605 33.313-1.86 62.579-8.297 89.47-19.68 26.855-11.367 50.706-27.39 72.91-48.984 1.128-.953 2.593-.957 3.718 0 22.207 21.594 46.059 37.617 72.91 48.985 26.891 11.382 56.157 17.82 89.473 19.68 12.559.698 22.543 11.07 22.727 23.609.09 6.015.246 11.46.48 16.625 1.149 60.57 2.422 129.203-20.68 191.84zm0 0"/><path d="M217.996 128.41c-70.36 0-127.598 57.242-127.598 127.598 0 70.36 57.239 127.601 127.598 127.601 70.356 0 127.598-57.242 127.598-127.601 0-70.356-57.242-127.598-127.598-127.598zm0 225.153c-53.793 0-97.555-43.762-97.555-97.555 0-53.793 43.762-97.555 97.555-97.555 53.79 0 97.55 43.762 97.55 97.555 0 53.793-43.76 97.555-97.55 97.555zm0 0"/><path d="M254.668 216.395l-59.266 59.265-16.086-16.086c-5.867-5.867-15.379-5.867-21.246 0-5.863 5.867-5.863 15.38 0 21.242l26.711 26.711a14.971 14.971 0 0010.621 4.399c3.844 0 7.688-1.465 10.621-4.399l69.891-69.89c5.863-5.867 5.863-15.38 0-21.242-5.867-5.872-15.379-5.872-21.246 0zm0 0"/></symbol><symbol viewBox="0 0 512 512" id="mail" xmlns="http://www.w3.org/2000/svg"><path d="M467 61H45C20.218 61 0 81.196 0 106v300c0 24.72 20.128 45 45 45h422c24.72 0 45-20.128 45-45V106c0-24.72-20.128-45-45-45zm-6.214 30L256.954 294.833 51.359 91h409.427zM30 399.788V112.069l144.479 143.24L30 399.788zM51.213 421l144.57-144.57 50.657 50.222c5.864 5.814 15.327 5.795 21.167-.046L317 277.213 460.787 421H51.213zM482 399.787L338.213 256 482 112.212v287.575z"/></symbol><symbol viewBox="0 0 511.999 511.999" id="man" xmlns="http://www.w3.org/2000/svg"><path d="M458.841 340.284h-12.533v-97.791c0-1.644-.54-3.241-1.537-4.548l-36.051-47.269a27.283 27.283 0 005.592-16.574c0-15.124-12.305-27.429-27.429-27.429-15.124 0-27.429 12.305-27.429 27.429 0 15.125 12.305 27.429 27.429 27.429 3.47 0 6.789-.655 9.849-1.836l34.574 45.333v95.257h-35.85v-21.744a7.5 7.5 0 00-15 0v21.744h-32.537v-58.72a7.5 7.5 0 00-15 0v58.72h-45.405l-12.952-76.52 3.642-5.481c3.224 2.29 6.419 3.915 11.108 2.742a11.989 11.989 0 007.827-6.285l18.297-36.67 41.782 16.181c1.139.492 23.239 10.412 23.239 36.369v12.918a7.5 7.5 0 0015 0v-12.918c0-36.448-31.25-49.714-32.58-50.261a3.546 3.546 0 00-.143-.057l-70.727-27.391v-15.053c11.085-8.849 18.857-21.68 21.1-36.316 5.524-.627 10.649-2.804 14.887-6.449a26.914 26.914 0 009.365-20.429 26.924 26.924 0 00-6.186-17.189V75.818C331.173 34.012 297.16 0 255.355 0s-75.818 34.012-75.818 75.818V98.04c-4.012 4.735-6.183 10.508-6.183 16.621a26.915 26.915 0 009.365 20.432c4.249 3.654 9.39 5.834 14.933 6.453 2.27 14.272 10.001 27.982 22.26 37.238v14.127l-70.65 27.39a8.255 8.255 0 00-.141.056c-1.331.547-32.58 13.814-32.58 50.261v69.664h-35.85v-95.257l34.574-45.333a27.285 27.285 0 009.849 1.836c15.125 0 27.429-12.305 27.429-27.429s-12.305-27.429-27.429-27.429-27.429 12.305-27.429 27.429a27.288 27.288 0 005.592 16.574l-36.051 47.269a7.5 7.5 0 00-1.537 4.548v97.791H53.158c-9.147 0-16.587 7.44-16.587 16.587v38.885c0 9.14 7.429 16.574 16.566 16.586v84.039c0 8.613 7.006 15.619 15.619 15.619h169.743a7.5 7.5 0 000-15H68.755a.618.618 0 01-.618-.618v-84.038h375.725v84.038a.618.618 0 01-.618.618H273.5a7.5 7.5 0 000 15h169.743c8.613 0 15.619-7.006 15.619-15.619v-84.039c9.137-.012 16.566-7.447 16.566-16.586V356.87c0-9.146-7.44-16.586-16.587-16.586zm-71.956-153.756c-6.852 0-12.428-5.575-12.428-12.428s5.575-12.428 12.428-12.428c6.853 0 12.428 5.575 12.428 12.428 0 6.935-5.721 12.428-12.428 12.428zm-261.771-24.855c6.853 0 12.428 5.575 12.428 12.428 0 6.853-5.575 12.428-12.428 12.428-6.707 0-12.428-5.493-12.428-12.428 0-6.853 5.576-12.428 12.428-12.428zm176.272 50.956l-16.106 32.279-18.46-13.112 20.074-24.779 14.492 5.612zm-45.406 29.869l9.989 7.093-3.319 4.995h-13.34l-3.318-4.994 9.988-7.094zm-21.066-47.156v-8.463c6.87 2.463 14.291 3.576 21.169 3.576 7.307 0 14.639-1.472 20.923-3.928v8.863l-21.026 25.955-21.066-26.003zm16.712 74.245h8.708l11.966 70.695h-32.64l11.966-70.695zm70.731-154.926c0 3.49-1.51 6.79-4.144 9.056a12.275 12.275 0 01-4.439 2.435v-22.969c5.16 1.584 8.583 6.209 8.583 11.478zM196.94 126.153a12.264 12.264 0 01-4.438-2.433 11.923 11.923 0 01-4.146-9.059c0-3.879 2.176-6.611 3.706-8.055.025-.022.051-.041.076-.064 1.389-1.288 3.046-2.27 4.802-2.928v22.539zm3.896-43.116c-1.46 1.353-2.631 3.228-3.229 4.963a29.228 29.228 0 00-3.065.632V75.818h-.003c0-33.535 27.282-60.817 60.817-60.817s60.817 27.283 60.817 60.817v12.465a28.32 28.32 0 00-2.408-.43c-.077-2.66-.711-4.268-3.204-7.297-2.315-2.808-6.487-7.105-16.066-17.4-3.991-4.29-10.535-5.17-15.545-1.896-20.47 13.372-45.593 20.246-68.95 18.573a12.175 12.175 0 00-9.164 3.204zm11.105 49.729V94.97c14.112.62 28.559-1.432 42.282-5.698 10.804-3.358 21.271-8.122 30.906-14.16 2.744 2.944 5.008 5.357 6.876 7.349l.367.392 1.908 2.036c2.048 2.188 3.629 3.896 4.491 4.901v42.976c0 23.569-19.226 42.689-42.69 42.689-25.906 0-44.14-19.934-44.14-42.689zm13.095 74.262l20.08 24.786c-8.685 6.168-17.499 12.43-18.436 13.096l-16.106-32.28 14.462-5.602zm-93.495 63.591c.001-25.92 21.849-35.769 23.243-36.37l41.737-16.181 18.297 36.671v.001a12.002 12.002 0 0010.745 6.643c4.129 0 6.564-1.947 8.19-3.102l3.642 5.481-12.952 76.52H179.08v-58.72a7.5 7.5 0 00-15 0v58.72h-32.538v-69.663zm328.886 125.136c0 .875-.711 1.586-1.586 1.586H53.157a1.588 1.588 0 01-1.586-1.586V356.87c0-.875.711-1.586 1.586-1.586h405.684c.875 0 1.586.711 1.586 1.586v38.885z"/></symbol><symbol viewBox="0 0 512 512" id="phone" xmlns="http://www.w3.org/2000/svg"><path d="M298.667 25.6h-85.333a8.536 8.536 0 00-8.533 8.533 8.536 8.536 0 008.533 8.533h85.333a8.536 8.536 0 008.533-8.533 8.536 8.536 0 00-8.533-8.533zm59.733 0h-8.533a8.536 8.536 0 00-8.533 8.533 8.536 8.536 0 008.533 8.533h8.533a8.536 8.536 0 008.533-8.533A8.536 8.536 0 00358.4 25.6zm-91.802 409.6H245.41c-12.979 0-23.543 10.564-23.543 23.543v4.122c0 12.979 10.564 23.535 23.535 23.535h21.188c12.979 0 23.543-10.556 23.543-23.535v-4.122c0-12.979-10.564-23.543-23.535-23.543zm6.469 27.665a6.475 6.475 0 01-6.468 6.468H245.41c-3.575 0-6.477-2.901-6.477-6.468v-4.122a6.48 6.48 0 016.477-6.477h21.18a6.478 6.478 0 016.477 6.477v4.122z"/><path d="M370.227 0H141.781c-17.007 0-30.848 13.841-30.848 30.848v450.304c0 17.007 13.841 30.848 30.848 30.848h228.437c17.007 0 30.848-13.841 30.848-30.839V30.848C401.067 13.841 387.226 0 370.227 0zM384 481.152c0 7.595-6.178 13.781-13.773 13.781H141.781c-7.603 0-13.781-6.187-13.781-13.773V30.848c0-7.595 6.178-13.781 13.781-13.781h228.437c7.603 0 13.781 6.187 13.781 13.781v450.304z"/><path d="M392.533 51.2H119.467a8.536 8.536 0 00-8.533 8.533v358.4a8.536 8.536 0 008.533 8.533h273.067a8.536 8.536 0 008.533-8.533v-358.4c0-4.71-3.823-8.533-8.534-8.533zM384 409.6H128V68.267h256V409.6z"/></symbol><symbol viewBox="0 0 512 512" id="plus" xmlns="http://www.w3.org/2000/svg"><path d="M492 236H276V20c0-11.046-8.954-20-20-20s-20 8.954-20 20v216H20c-11.046 0-20 8.954-20 20s8.954 20 20 20h216v216c0 11.046 8.954 20 20 20s20-8.954 20-20V276h216c11.046 0 20-8.954 20-20s-8.954-20-20-20z"/></symbol><symbol viewBox="0 0 496 496" id="resume" xmlns="http://www.w3.org/2000/svg"><path d="M256 192v304h240V192H256zm224 288H272V208h208v272zM16 352v-24h144v-16H0v40c0 22.056 17.944 40 40 40h200v-16H40c-13.232 0-24-10.768-24-24z"/><path d="M176 336c0 13.232 10.768 24 24 24h40v-16h-40c-4.408 0-8-3.584-8-8v-8h48v-16h-64v24zM32 40c0-13.232 10.768-24 24-24h384c13.232 0 24 10.768 24 24v136h16V40c0-22.056-17.944-40-40-40H56C33.944 0 16 17.944 16 40v256h16V40z"/><path d="M448 176V48c0-8.824-7.176-16-16-16H64c-8.824 0-16 7.176-16 16v248h16V48h368v128h16z"/><path d="M168 80H88v80h80V80zm-16 64h-48V96h48v48zm32-64h192v16H184zm208 0h16v16h-16zm-208 32h224v16H184zm0 32h224v16H184zM96 256h112v16H96zm128 0h16v16h-16zM96 192h112v16H96zm128 0h16v16h-16zM96 224h144v16H96zm320 72h-16v24h-64v-64h64v-16h-80v96h96z"/><path d="M357.656 266.344l-11.312 11.312 28.992 28.992 77.576-60.328-9.824-12.64-66.424 51.672zM416 408h-16v24h-64v-64h64v-16h-80v96h96z"/><path d="M357.656 378.344l-11.312 11.312 28.992 28.992 77.576-60.336-9.824-12.624-66.424 51.664z"/></symbol><symbol viewBox="0 0 479.989 479.989" id="target" xmlns="http://www.w3.org/2000/svg"><path d="M439.597 107.426l37.84-37.76a8 8 0 001.68-8.72 8 8 0 00-7.52-4.96h-36.72l18.4-18.32a8.033 8.033 0 10-11.36-11.36l-18.32 18.4V7.986a8 8 0 00-4.96-7.36 8 8 0 00-8.72 1.68l-37.76 37.68C261.424-32.865 112.6-2.156 39.749 108.577c-59.238 90.041-51.186 208.53 19.688 289.729l-34.96 70.08a8 8 0 007.12 11.6h40a8.001 8.001 0 007.12-4.4l20.56-41.04c83.735 60.592 196.905 60.592 280.64 0l20.56 41.04a8.001 8.001 0 007.12 4.4h40a8 8 0 007.12-11.6l-34.96-70.08c71.796-81.249 79.939-200.636 19.84-290.88zm-20.72-35.44h33.44l-28.72 28.72-3.2 3.28h-33.52l32-32zm-43.28-12.72l3.28-3.2 28.72-28.8v33.52l-32 32v-33.52zm-17.36 310.566c-71.777 65.547-183.099 60.497-248.646-11.28s-60.497-183.099 11.28-248.646c67.217-61.383 170.149-61.383 237.366 0l-22.64 22.88c-59.431-53.245-150.773-48.231-204.018 11.2-53.245 59.431-48.231 150.773 11.2 204.018 59.431 53.245 150.773 48.231 204.018-11.2 49.161-54.872 49.161-137.946 0-192.818l22.72-22.8c65.547 71.776 60.497 183.099-11.28 248.646zM233.711 245.619l.046.046a8 8 0 0011.314.046l.046-.046 21.92-21.68a32.004 32.004 0 014.56 16c.279 17.892-13.999 32.622-31.891 32.901-17.892.279-32.622-13.999-32.901-31.891-.279-17.892 13.999-32.622 31.891-32.901a32.392 32.392 0 0116.901 4.451l-21.84 21.76a8 8 0 00-.046 11.314zm33.646-44.753c-21.618-15.344-51.581-10.258-66.925 11.36-15.344 21.618-10.258 51.581 11.36 66.925s51.581 10.258 66.925-11.36c11.81-16.639 11.81-38.926 0-55.565l22.8-22.8c27.947 34.221 22.861 84.618-11.36 112.565-34.221 27.947-84.618 22.861-112.565-11.36-27.947-34.221-22.861-84.618 11.36-112.565 29.449-24.05 71.757-24.05 101.205 0l-22.8 22.8zm-101.135-22.8c-34.246 40.476-29.196 101.049 11.28 135.295 40.476 34.246 101.049 29.196 135.295-11.28 30.283-35.792 30.283-88.223 0-124.015l22.8-22.64c46.916 53.234 41.794 134.422-11.44 181.338s-134.422 41.794-181.338-11.44-41.794-134.422 11.44-181.338c48.55-42.788 121.347-42.788 169.898 0l-22.64 22.8c-40.476-34.246-101.049-29.196-135.295 11.28zm-99.585 285.92h-22.08l27.04-53.2c4.8 4.8 9.92 9.36 15.2 13.76l-20.16 39.44zm368 0h-22.08l-19.76-39.44c5.28-4.4 10.4-8.96 15.2-13.76l26.64 53.2zm-34-68.16c-85.573 88.852-226.971 91.51-315.823 5.937a224.56 224.56 0 01-5.937-5.937l-.16-.24c-85.952-88.977-83.5-230.785 5.477-316.736C158.967 6.618 273.611-4.672 361.037 51.586v.88c-.03.239-.03.481 0 .72a7.997 7.997 0 00-1.44 2.8v34.32C276.87 23.97 156.03 37.258 89.695 119.986s-53.047 203.567 29.68 269.902 203.567 53.047 269.902-29.68c56.279-70.185 56.279-170.037 0-240.222h34.32a8.005 8.005 0 002.72-.56h.72l.88-.4c56.23 87.42 44.934 202.038-27.28 276.8z"/></symbol><symbol viewBox="0 0 480 480.006" id="team" xmlns="http://www.w3.org/2000/svg"><path d="M443.371 416.352c7.817-8.547 12.633-19.883 12.633-32.344 0-23.738-17.336-43.45-40-47.281v-64.72c0-2.128-.84-4.16-2.344-5.655l-32.21-32.211c1.456-2.766 3-5.489 4.28-8.32a7.98 7.98 0 00-1.824-9.133l-14.902-13.97a134.835 134.835 0 004.047-15.136l20.008-4.672a7.998 7.998 0 006.144-7c.527-5.398.8-10.746.8-15.902a162 162 0 00-.808-15.906 7.998 7.998 0 00-6.144-7l-20.008-4.672a135.284 135.284 0 00-4.047-15.137l14.902-13.969a8.005 8.005 0 001.825-9.133 159.989 159.989 0 00-15.946-27.52 7.963 7.963 0 00-8.824-2.984l-19.39 5.895A135.336 135.336 0 00330.41 58.43l5.906-19.39a8.01 8.01 0 00-2.984-8.825 159.975 159.975 0 00-27.527-15.945c-3.121-1.391-6.793-.68-9.137 1.824l-13.969 14.914c-4.953-1.64-10.015-3-15.137-4.059l-4.671-20.008a7.993 7.993 0 00-7-6.144c-10.801-1.063-21.016-1.063-31.817 0a7.998 7.998 0 00-7 6.144l-4.672 20.008a136.988 136.988 0 00-15.136 4.047L183.3 16.094c-2.348-2.496-6-3.207-9.137-1.824a159.989 159.989 0 00-27.52 15.945 8 8 0 00-2.984 8.824l5.895 19.39a137.091 137.091 0 00-11.153 11.145l-19.359-5.894c-3.258-1-6.824.207-8.824 2.98a160.371 160.371 0 00-15.946 27.531 7.986 7.986 0 001.825 9.133l14.914 13.969c-1.64 4.953-3 10.016-4.059 15.137l-20.008 4.672a7.994 7.994 0 00-6.14 7 162.927 162.927 0 00-.801 15.906c0 5.156.27 10.504.808 15.902a7.994 7.994 0 006.141 7l20.012 4.672a135.283 135.283 0 004.047 15.137l-14.907 13.969a8.01 8.01 0 00-1.824 9.132c1.281 2.832 2.824 5.563 4.281 8.32l-32.207 32.212a7.94 7.94 0 00-2.351 5.656v64.719c-22.664 3.832-40 23.543-40 47.28 0 12.462 4.816 23.798 12.633 32.345C16.18 418.102.004 435.125.004 456.039v15.969c0 4.422 3.574 8 8 8h128c4.422 0 8-3.578 8-8v-15.969c0-20.906-16.176-37.93-36.633-39.687 7.817-8.547 12.633-19.883 12.633-32.344 0-23.738-17.336-43.45-40-47.281v-61.41l26.976-26.973c1.102 1.652 2.079 3.39 3.239 5 2 2.773 5.52 3.98 8.824 2.98l19.39-5.894a135.947 135.947 0 0011.153 11.152l-5.902 19.39a8.004 8.004 0 002.984 8.825 159.828 159.828 0 0027.527 15.945c3.137 1.399 6.793.688 9.137-1.824l13.969-14.91c4.949 1.637 10.015 3 15.133 4.054l4.671 20.008a7.998 7.998 0 007 6.145c2.68.262 5.266.262 7.907.398v17.13c-22.664 3.823-40 23.534-40 47.28 0 12.461 4.816 23.797 12.633 32.344-20.465 1.735-36.641 18.758-36.641 39.672v15.969c0 4.422 3.574 8 8 8h128c4.422 0 8-3.578 8-8v-15.969c0-20.906-16.176-37.93-36.633-39.687 7.817-8.547 12.633-19.883 12.633-32.344 0-23.738-17.336-43.45-40-47.281v-17.13c2.64-.136 5.223-.136 7.902-.398a7.99 7.99 0 007-6.144l4.672-20.008a136.148 136.148 0 0015.137-4.05l13.969 14.905c2.343 2.504 6.015 3.215 9.136 1.825a160.284 160.284 0 0027.52-15.946 8.005 8.005 0 002.984-8.824l-5.898-19.39a135.336 135.336 0 0011.152-11.153l19.395 5.902a8.026 8.026 0 008.824-2.98c1.156-1.617 2.14-3.356 3.238-5.012l26.969 26.992v61.41c-22.664 3.825-40 23.536-40 47.282 0 12.46 4.816 23.797 12.633 32.344-20.457 1.75-36.633 18.773-36.633 39.687v15.969c0 4.422 3.574 8 8 8h128c4.422 0 8-3.578 8-8v-15.969c0-20.914-16.176-37.937-36.633-39.687zm-315.367 39.687v7.969h-112v-7.969c0-13.25 10.781-24.031 24.031-24.031h63.938c13.246 0 24.03 10.781 24.03 24.031zm-24-72.031c0 17.644-14.352 32-32 32-17.649 0-32-14.356-32-32 0-17.649 14.351-32 32-32 17.648 0 32 14.351 32 32zm192 72.031v7.969h-112v-7.969c0-13.25 10.781-24.031 24.031-24.031h63.938c13.246 0 24.03 10.781 24.03 24.031zm-24-72.031c0 17.644-14.352 32-32 32-17.649 0-32-14.356-32-32 0-17.649 14.351-32 32-32 17.648 0 32 14.351 32 32zm88.031-144.684l-18.808-5.726c-3.106-.961-6.457.082-8.504 2.566a119.872 119.872 0 01-16.551 16.555 8.015 8.015 0 00-2.57 8.504l5.722 18.808a145.985 145.985 0 01-14.96 8.672l-13.536-14.457c-2.21-2.367-5.64-3.168-8.648-2.023a119.732 119.732 0 01-22.489 6.015 7.992 7.992 0 00-6.496 6.07l-4.527 19.419a139.29 139.29 0 01-17.313 0l-4.527-19.418a7.998 7.998 0 00-6.496-6.07 119.258 119.258 0 01-22.48-6.016 7.928 7.928 0 00-8.657 2.015l-13.543 14.457a144.265 144.265 0 01-14.96-8.664l5.726-18.808a8.012 8.012 0 00-2.566-8.504 119.656 119.656 0 01-16.551-16.555c-2.059-2.492-5.41-3.52-8.504-2.566l-18.809 5.718a145.627 145.627 0 01-8.672-14.957l14.454-13.539a7.99 7.99 0 002.027-8.644 119.446 119.446 0 01-6.02-22.489 7.987 7.987 0 00-6.07-6.496l-19.418-4.53a133.25 133.25 0 01-.285-8.653c0-2.832.094-5.723.27-8.656l19.417-4.532a7.988 7.988 0 006.07-6.496 119.22 119.22 0 016.016-22.476 7.988 7.988 0 00-2.015-8.657l-14.453-13.546a143.217 143.217 0 018.664-14.958l18.804 5.727a7.988 7.988 0 008.504-2.574 120.06 120.06 0 0116.555-16.547 8.006 8.006 0 002.566-8.504l-5.718-18.809a145.985 145.985 0 0114.96-8.671l13.536 14.457c2.199 2.359 5.625 3.152 8.648 2.023a119.652 119.652 0 0122.488-6.016 7.997 7.997 0 006.496-6.07l4.528-19.418c5.87-.36 11.437-.36 17.312 0l4.528 19.418a7.993 7.993 0 006.496 6.07 119.337 119.337 0 0122.48 6.016 7.964 7.964 0 008.656-2.016l13.543-14.457a144.266 144.266 0 0114.961 8.664l-5.73 18.81a8.02 8.02 0 002.57 8.503 119.872 119.872 0 0116.551 16.555 7.979 7.979 0 008.504 2.566l18.809-5.719a146.348 146.348 0 018.671 14.957l-14.457 13.54a7.993 7.993 0 00-2.023 8.648 119.397 119.397 0 016.016 22.484 7.991 7.991 0 006.074 6.496l19.414 4.532c.191 2.933.289 5.824.289 8.656 0 2.832-.098 5.719-.274 8.652l-19.414 4.531a7.992 7.992 0 00-6.074 6.496 119.594 119.594 0 01-6.015 22.489 7.988 7.988 0 002.023 8.644l14.457 13.54a144.686 144.686 0 01-8.672 14.964zm47.969 112.684c17.648 0 32 14.351 32 32 0 17.644-14.352 32-32 32-17.649 0-32-14.356-32-32 0-17.649 14.351-32 32-32zm56 112h-112v-7.969c0-13.25 10.781-24.031 24.031-24.031h63.938c13.246 0 24.03 10.781 24.03 24.031zm0 0"/><path d="M240.004 56.008c-57.344 0-104 46.652-104 104 0 57.344 46.656 104 104 104s104-46.656 104-104c0-57.348-46.656-104-104-104zm-55.61 172.125c2.008-20.192 18.97-36.125 39.61-36.125h32c20.64 0 37.598 15.933 39.605 36.125-15.168 12.41-34.527 19.875-55.605 19.875-21.082 0-40.441-7.465-55.61-19.875zm55.61-52.125c-17.649 0-32-14.356-32-32 0-17.649 14.351-32 32-32 17.648 0 32 14.351 32 32 0 17.644-14.352 32-32 32zm69.086 38.336c-5.656-16.852-19.11-30.168-36.016-35.625 9.176-8.754 14.93-21.067 14.93-34.711 0-26.473-21.527-48-48-48s-48 21.527-48 48c0 13.644 5.75 25.957 14.933 34.703-16.902 5.453-30.359 18.773-36.015 35.625-11.809-14.977-18.918-33.824-18.918-54.328 0-48.524 39.48-88 88-88s88 39.476 88 88c0 20.504-7.113 39.351-18.914 54.336zm122.914-62.336h16v16h-16zm32 0h16v16h-16zm0 32h16v16h-16zm0-64h16v16h-16zm-464 32h16v16h-16zm0 32h16v16h-16zm0-64h16v16h-16zm32 32h16v16h-16zm0 0"/></symbol></svg>