<svg width="30" height="18" viewBox="0 0 30 18" fill="none" xmlns="http://www.w3.org/2000/svg">
<path d="M1.83144 10.4094L25.1555 10.4094L19.59 15.6035C19.1025 16.0582 19.1025 16.7959 19.59 17.2505C20.0776 17.7055 20.8681 17.7055 21.3549 17.2505L29.0511 10.0683C29.5386 9.61356 29.5386 8.87583 29.0511 8.42123L21.3549 1.23865C21.1112 1.01108 20.7918 0.897462 20.4725 0.897462C20.1531 0.897462 19.8337 1.01108 19.59 1.23865C19.1025 1.69338 19.1025 2.43105 19.59 2.88565L25.1555 8.07998L1.83144 8.07998C1.14219 8.07998 0.583253 8.60151 0.583253 9.24473C0.583253 9.88795 1.14211 10.4094 1.83144 10.4094Z" fill="white"/>
</svg>
