<?xml version="1.0" encoding="utf-8"?>
<!-- Generator: Adobe Illustrator 16.0.0, SVG Export Plug-In . SVG Version: 6.00 Build 0)  -->
<!DOCTYPE svg PUBLIC "-//W3C//DTD SVG 1.1//EN" "http://www.w3.org/Graphics/SVG/1.1/DTD/svg11.dtd">
<svg version="1.1" id="Layer_1" xmlns="http://www.w3.org/2000/svg" xmlns:xlink="http://www.w3.org/1999/xlink" x="0px" y="0px"
	 width="1920px" height="557.374px" viewBox="0 98.958 1920 557.374" enable-background="new 0 98.958 1920 557.374"
	 xml:space="preserve">
<polygon fill="#AFAFAF" points="1920,524.666 0,584.739 0,661.854 1920,661.854 "/>
<polygon opacity="0.7" fill="#FAFAFA" enable-background="new    " points="420.43,98.625 1914,98.625 1914,656.332 1104.5,656.332 
	"/>
<polygon opacity="0.6" fill="#FAFAFA" enable-background="new    " points="994.648,99.291 1920,99.291 1920,656.332 
	648.648,656.332 "/>
<polygon opacity="0.3" fill="#EFEFEF" enable-background="new    " points="1007.159,98.625 674.648,656.332 1920,656.332 
	1920,99.292 "/>
<g>
	<linearGradient id="SVGID_1_" gradientUnits="userSpaceOnUse" x1="1535.1428" y1="540.0254" x2="1535.1428" y2="138.5623">
		<stop  offset="0" style="stop-color:#C1272D"/>
		<stop  offset="0.1485" style="stop-color:#C6262C"/>
		<stop  offset="0.3177" style="stop-color:#D32229"/>
		<stop  offset="0.4965" style="stop-color:#EA1D25"/>
		<stop  offset="0.5152" style="stop-color:#ED1C24"/>
		<stop  offset="1" style="stop-color:#F15A24"/>
	</linearGradient>
	<path fill="url(#SVGID_1_)" d="M1587.719,437.145c0.259-0.242,0.518-0.481,0.769-0.731c2.81-2.802,5.07-6.16,6.597-9.838
		c1.532-3.673,2.316-7.663,2.312-11.612h-8.175c0.001,2.901-0.569,5.805-1.688,8.488c-1.113,2.685-2.768,5.143-4.827,7.195
		c-2.057,2.055-4.523,3.702-7.214,4.812c-2.688,1.115-5.602,1.688-8.514,1.686h-0.001h-107.619v-0.002
		c-1.87,0.002-3.699,0.36-5.4,1.063c-0.182,0.075-0.356,0.171-0.534,0.254v-4.895h-8.174v107.258h8.174v-89.61
		c0.005-0.818,0.153-1.555,0.446-2.258c0.291-0.703,0.732-1.367,1.293-1.925c0.558-0.559,1.224-1,1.928-1.292
		c0.706-0.288,1.445-0.438,2.268-0.44h107.619h0.001h58.056v-8.153H1587.719z"/>
	<linearGradient id="SVGID_2_" gradientUnits="userSpaceOnUse" x1="1423.8479" y1="540.8232" x2="1423.8479" y2="136.7803">
		<stop  offset="0" style="stop-color:#2E3192"/>
		<stop  offset="0.4364" style="stop-color:#0071BC"/>
		<stop  offset="1" style="stop-color:#29ABE2"/>
	</linearGradient>
	<path fill="url(#SVGID_2_)" d="M1528.535,276.214c0,2.902-0.57,5.808-1.688,8.49c-1.114,2.684-2.768,5.142-4.827,7.194
		c-2.059,2.057-4.523,3.702-7.214,4.814c-2.688,1.116-5.602,1.686-8.513,1.684h-0.001l0,0h-10.587v0.01l0,0
		c-3.961-0.005-7.963,0.777-11.645,2.305c-3.688,1.522-7.055,3.776-9.864,6.58c-0.25,0.249-0.491,0.51-0.731,0.769v-38.579
		c-0.004-2.903,0.568-5.807,1.686-8.489c1.114-2.685,2.767-5.143,4.827-7.197c2.058-2.054,4.522-3.702,7.213-4.813
		c2.689-1.115,5.603-1.686,8.515-1.684l0,0v-8.154l0,0c-3.961-0.003-7.963,0.777-11.645,2.305c-3.688,1.522-7.055,3.777-9.864,6.581
		c-0.25,0.25-0.491,0.508-0.731,0.766v-29.872h-8.177v196.022c-0.001,0.818-0.152,1.556-0.441,2.262
		c-0.293,0.7-0.736,1.364-1.294,1.923c-0.562,0.558-1.227,1-1.93,1.289c-0.707,0.29-1.446,0.439-2.265,0.445v0.015h-0.002
		c-3.96-0.007-7.961,0.776-11.645,2.305c-3.687,1.522-7.054,3.775-9.864,6.58c-0.248,0.249-0.49,0.509-0.732,0.767V323.814h-0.021
		c-0.1-2.616-0.659-5.219-1.668-7.639c-1.116-2.686-2.77-5.146-4.831-7.201c-2.06-2.057-4.526-3.707-7.219-4.818
		c-2.692-1.117-5.607-1.688-8.522-1.687v-0.01h-62.618c-2.896-0.003-5.794-0.573-8.471-1.681c-2.69-1.111-5.154-2.76-7.215-4.815
		c-2.058-2.052-3.71-4.511-4.825-7.196c-1.117-2.68-1.689-5.585-1.686-8.49l0,0h-8.177l0,0c-0.005,3.949,0.778,7.942,2.312,11.613
		c1.525,3.679,3.784,7.036,6.595,9.839c0.253,0.25,0.512,0.49,0.771,0.73h-20.551v8.155h103.865v0.011c1.865,0,3.69,0.36,5.39,1.062
		c1.696,0.701,3.262,1.747,4.57,3.054c1.309,1.305,2.358,2.866,3.062,4.559c0.702,1.689,1.063,3.507,1.065,5.363v59.785
		c-1.68-1.37-3.561-2.497-5.564-3.323c-2.692-1.118-5.607-1.688-8.522-1.686v-0.013h-48.492c-1.864,0-3.69-0.358-5.388-1.062
		c-1.697-0.702-3.261-1.746-4.57-3.054c-1.31-1.305-2.357-2.864-3.061-4.557c-0.703-1.694-1.066-3.517-1.066-5.378l0,0v-4.821l0,0
		v-43.623h-8.174l-0.002,22.938c-0.238-0.258-0.481-0.518-0.731-0.766c-2.81-2.806-6.177-5.059-9.863-6.58
		c-3.683-1.53-7.685-2.31-11.644-2.307v8.155c2.91-0.004,5.823,0.568,8.513,1.683c2.69,1.11,5.154,2.759,7.213,4.813
		c2.061,2.055,3.712,4.511,4.827,7.195c1.115,2.678,1.688,5.579,1.686,8.478v4.834h0.002v0.003c-0.003,2.903,0.57,5.812,1.688,8.497
		c1.115,2.688,2.771,5.147,4.83,7.201c2.062,2.057,4.529,3.707,7.222,4.818c2.691,1.114,5.606,1.689,8.519,1.685l0,0h48.492v0.012
		c1.865,0,3.692,0.36,5.39,1.062c1.698,0.701,3.262,1.747,4.57,3.053s2.358,2.867,3.062,4.558c0.704,1.696,1.065,3.516,1.065,5.377
		v139.182h8.175v-89.61h0.001c-0.003-2.903,0.568-5.808,1.688-8.49c1.112-2.684,2.767-5.143,4.826-7.196
		c2.058-2.054,4.522-3.7,7.213-4.811c2.689-1.116,5.6-1.688,8.513-1.685h0.002v-0.017c1.866,0,3.694-0.359,5.397-1.064
		c1.699-0.701,3.265-1.748,4.577-3.055c1.311-1.309,2.36-2.873,3.063-4.566c0.706-1.696,1.068-3.52,1.069-5.385h-0.001V328.74
		c-0.004-2.902,0.568-5.808,1.686-8.49c1.114-2.684,2.767-5.143,4.827-7.195c2.058-2.055,4.522-3.702,7.213-4.813
		c2.689-1.115,5.603-1.685,8.515-1.684l0,0v-0.009h10.587h0.001c3.959,0.004,7.961-0.777,11.644-2.305
		c3.687-1.523,7.055-3.776,9.864-6.58c2.812-2.802,5.07-6.161,6.597-9.837c1.532-3.674,2.315-7.665,2.311-11.614H1528.535z"/>
	<linearGradient id="SVGID_3_" gradientUnits="userSpaceOnUse" x1="1352.5237" y1="538.6973" x2="1352.5237" y2="136.7002">
		<stop  offset="0" style="stop-color:#006837"/>
		<stop  offset="0.4303" style="stop-color:#009245"/>
		<stop  offset="1" style="stop-color:#39B54A"/>
	</linearGradient>
	<path fill="url(#SVGID_3_)" d="M1427.895,396.257c-0.704-1.693-1.753-3.257-3.065-4.564c-1.31-1.309-2.878-2.354-4.578-3.057
		c-1.699-0.703-3.528-1.065-5.397-1.065v-0.01h-92.497c-2.903-0.001-5.811-0.571-8.493-1.684c-2.691-1.111-5.155-2.761-7.213-4.814
		c-2.062-2.054-3.713-4.511-4.825-7.193c-1.119-2.684-1.691-5.588-1.689-8.49v-0.003h-8.174v0.003
		c-0.006,3.949,0.777,7.938,2.311,11.612c1.525,3.678,3.785,7.034,6.596,9.838c0.25,0.25,0.51,0.49,0.77,0.73h-25.551v8.155h138.767
		v0.009c0.821,0.004,1.56,0.153,2.267,0.443c0.703,0.291,1.369,0.731,1.928,1.291c0.559,0.558,1.003,1.222,1.294,1.923
		c0.291,0.705,0.441,1.441,0.443,2.261v139.182h8.176V401.642C1428.96,399.777,1428.6,397.953,1427.895,396.257z"/>
	<linearGradient id="SVGID_4_" gradientUnits="userSpaceOnUse" x1="1457.6624" y1="540.0254" x2="1457.6624" y2="136.4786">
		<stop  offset="0" style="stop-color:#C66D14"/>
		<stop  offset="0.4364" style="stop-color:#F7931E"/>
		<stop  offset="1" style="stop-color:#FBB03B"/>
	</linearGradient>
	<path fill="url(#SVGID_4_)" d="M1481.617,414.945L1481.617,414.945V328.74c0-1.86,0.362-3.681,1.066-5.374
		c0.703-1.693,1.751-3.253,3.061-4.558c1.308-1.307,2.873-2.354,4.57-3.054c1.699-0.703,3.523-1.063,5.391-1.063v-0.008h46.683
		h0.002h44.321v-8.154h-23.584c0.259-0.242,0.519-0.481,0.77-0.731c2.812-2.803,5.07-6.162,6.597-9.838
		c1.532-3.672,2.316-7.665,2.311-11.613h-8.176c0.003,2.902-0.569,5.808-1.686,8.49c-1.115,2.685-2.768,5.142-4.827,7.195
		c-2.059,2.055-4.523,3.702-7.214,4.814c-2.688,1.114-5.599,1.686-8.512,1.684h-0.002h-46.683v0.01l0,0
		c-2.914-0.002-5.83,0.569-8.522,1.685c-2.693,1.113-5.16,2.762-7.22,4.819c-2.061,2.053-3.716,4.514-4.831,7.201
		c-1.069,2.564-1.634,5.332-1.681,8.108h-0.008v0.336c0,0.018-0.002,0.037-0.002,0.053h0.002v86.204
		c0,1.861-0.363,3.683-1.066,5.375c-0.702,1.693-1.752,3.254-3.06,4.559c-1.309,1.309-2.875,2.353-4.572,3.054
		c-1.696,0.703-3.523,1.062-5.387,1.062v0.017h-0.002c-2.914-0.004-5.83,0.569-8.521,1.685c-1.998,0.825-3.87,1.946-5.546,3.31
		V135.332h-8.174V197.4c-0.248-0.266-0.498-0.532-0.756-0.79c-2.81-2.806-6.176-5.058-9.862-6.581
		c-3.683-1.529-7.684-2.309-11.645-2.305v8.154c2.91-0.001,5.825,0.568,8.513,1.683c2.691,1.112,5.155,2.76,7.214,4.815
		c2.062,2.053,3.712,4.511,4.824,7.196c1.119,2.68,1.691,5.586,1.69,8.49v0.001h0.021l-0.001,85.95
		c-0.249-0.266-0.497-0.533-0.755-0.789c-2.81-2.805-6.176-5.058-9.862-6.581c-3.683-1.53-7.684-2.31-11.645-2.306v-0.011h-33.583
		c-2.911,0.002-5.824-0.569-8.513-1.684c-2.69-1.111-5.155-2.76-7.214-4.812c-2.059-2.053-3.712-4.513-4.825-7.197
		c-1.12-2.681-1.691-5.585-1.689-8.491l0,0v-25.868l0,0v-44.407h-8.175v23.724c-0.243-0.26-0.482-0.519-0.732-0.769
		c-2.81-2.804-6.179-5.058-9.864-6.579c-3.682-1.53-7.684-2.31-11.644-2.307v8.153c2.91,0,5.823,0.57,8.512,1.685
		c2.69,1.111,5.155,2.759,7.214,4.812c2.062,2.054,3.711,4.512,4.826,7.197c1.119,2.681,1.69,5.586,1.688,8.49l0,0v25.868l0,0v0.261
		h0.006c0.029,3.866,0.809,7.762,2.305,11.354c1.528,3.677,3.787,7.035,6.597,9.838c2.811,2.805,6.179,5.058,9.864,6.581
		c3.544,1.472,7.385,2.243,11.199,2.295v0.01h34.028v0.01c2.91,0,5.825,0.57,8.513,1.685c2.691,1.111,5.155,2.759,7.214,4.814
		c2.062,2.052,3.712,4.51,4.824,7.195c1.119,2.681,1.691,5.585,1.69,8.489l0,0h0.021v125.662c-0.012,0.292-0.021,0.585-0.021,0.877
		h0.021v89.61h8.175v-90.02c0.05-1.717,0.392-3.396,1.048-4.966c0.7-1.692,1.748-3.254,3.06-4.56
		c1.309-1.306,2.873-2.352,4.568-3.052c1.701-0.704,3.524-1.062,5.393-1.064v0.002h42.327v-0.027
		c2.76-0.054,5.511-0.616,8.061-1.674c2.691-1.112,5.161-2.762,7.221-4.817c2.061-2.055,3.715-4.516,4.829-7.202
		c1.119-2.686,1.693-5.592,1.689-8.498v-0.001h0.011v-28.129c0-2.903,0.57-5.81,1.688-8.49c1.115-2.684,2.767-5.142,4.827-7.195
		c2.059-2.055,4.524-3.703,7.216-4.813c2.687-1.115,5.601-1.686,8.51-1.684h0.002h0.001h37.933v-8.153h-17.194
		c0.26-0.241,0.519-0.481,0.77-0.731c2.812-2.802,5.07-6.16,6.596-9.837c1.533-3.674,2.317-7.664,2.312-11.613h-8.175
		c0.003,2.901-0.57,5.808-1.688,8.488c-1.112,2.685-2.767,5.144-4.825,7.195c-2.059,2.056-4.523,3.703-7.216,4.813
		c-2.67,1.109-5.563,1.679-8.456,1.685h-0.056h-0.002c-3.957-0.005-7.96,0.776-11.643,2.304c-3.688,1.523-7.054,3.777-9.863,6.581
		c-0.251,0.249-0.493,0.509-0.734,0.768V341.58h-8.174v73.364h-0.008c-0.002,1.861-0.363,3.683-1.069,5.375
		c-0.701,1.693-1.752,3.254-3.061,4.559c-1.308,1.309-2.874,2.353-4.571,3.054c-1.697,0.703-3.523,1.062-5.388,1.062v0.017h-24.643
		c1.379-1.68,2.513-3.56,3.346-5.567C1481.048,420.758,1481.623,417.852,1481.617,414.945z"/>
	<path fill="none" stroke="#C2B59B" stroke-miterlimit="10" d="M1448.901,522.665"/>
	
		<linearGradient id="SVGID_5_" gradientUnits="userSpaceOnUse" x1="607.3445" y1="-1357.0171" x2="724.283" y2="-1357.0171" gradientTransform="matrix(0 1 -1 0 59.9504 -66.615)">
		<stop  offset="0" style="stop-color:#006837"/>
		<stop  offset="0.4303" style="stop-color:#009245"/>
		<stop  offset="1" style="stop-color:#39B54A"/>
	</linearGradient>
	<polygon fill="url(#SVGID_5_)" points="1404.992,657.668 1420.797,540.734 1428.943,540.729 1421.035,657.668 	"/>
	
		<linearGradient id="SVGID_6_" gradientUnits="userSpaceOnUse" x1="607.3445" y1="-1385.1401" x2="724.283" y2="-1385.1401" gradientTransform="matrix(0 1 -1 0 59.9504 -66.615)">
		<stop  offset="0" style="stop-color:#C66D14"/>
		<stop  offset="0.4364" style="stop-color:#F7931E"/>
		<stop  offset="1" style="stop-color:#FBB03B"/>
	</linearGradient>
	<polygon fill="url(#SVGID_6_)" points="1437.069,657.668 1437.081,540.729 1445.244,540.729 1453.113,657.668 	"/>
	
		<linearGradient id="SVGID_7_" gradientUnits="userSpaceOnUse" x1="607.3445" y1="-1369.1191" x2="724.283" y2="-1369.1191" gradientTransform="matrix(0 1 -1 0 59.9504 -66.615)">
		<stop  offset="0" style="stop-color:#2E3192"/>
		<stop  offset="0.4364" style="stop-color:#0071BC"/>
		<stop  offset="1" style="stop-color:#29ABE2"/>
	</linearGradient>
	<polygon fill="url(#SVGID_7_)" points="1421.035,657.668 1428.943,540.729 1437.104,540.729 1437.069,657.668 	"/>
	
		<linearGradient id="SVGID_8_" gradientUnits="userSpaceOnUse" x1="607.3445" y1="-1397.2593" x2="724.283" y2="-1397.2593" gradientTransform="matrix(0 1 -1 0 59.9504 -66.615)">
		<stop  offset="0" style="stop-color:#C1272D"/>
		<stop  offset="0.1485" style="stop-color:#C6262C"/>
		<stop  offset="0.3177" style="stop-color:#D32229"/>
		<stop  offset="0.4965" style="stop-color:#EA1D25"/>
		<stop  offset="0.5152" style="stop-color:#ED1C24"/>
		<stop  offset="1" style="stop-color:#F15A24"/>
	</linearGradient>
	<polygon fill="url(#SVGID_8_)" points="1453.113,657.668 1445.226,540.729 1453.388,540.729 1469.194,657.668 	"/>
	<g opacity="0.43">
		<defs>
			<rect id="SVGID_9_" x="1437.069" y="540.22" opacity="0.43" width="3.301" height="116.937"/>
		</defs>
		<clipPath id="SVGID_10_">
			<use xlink:href="#SVGID_9_"  overflow="visible"/>
		</clipPath>
		
			<radialGradient id="SVGID_11_" cx="842.5969" cy="-1597.6396" r="7.2979" gradientTransform="matrix(0 6.4394 0.387 0 2055.3564 -4827.5747)" gradientUnits="userSpaceOnUse">
			<stop  offset="0" style="stop-color:#000000"/>
			<stop  offset="1" style="stop-color:#FFFFFF"/>
		</radialGradient>
		<path clip-path="url(#SVGID_10_)" fill="url(#SVGID_11_)" d="M1437.069,655.15c1.139,0,2.063-60.553,2.063-79.505
			c0-18.953-0.925-34.315-2.063-34.315s-2.062,15.362-2.062,34.315C1435.007,594.598,1435.93,655.15,1437.069,655.15z"/>
	</g>
	<g opacity="0.43">
		<defs>
			<polygon id="SVGID_12_" opacity="0.43" points="1423.209,657.206 1430.852,541.054 1428.753,540.828 1421.112,656.98 			"/>
		</defs>
		<clipPath id="SVGID_13_">
			<use xlink:href="#SVGID_12_"  overflow="visible"/>
		</clipPath>
		
			<radialGradient id="SVGID_14_" cx="853.8376" cy="-1677.8047" r="6.9622" gradientTransform="matrix(-1.0728 9.9613 0.3848 0.0412 2985.9836 -7837.8242)" gradientUnits="userSpaceOnUse">
			<stop  offset="0" style="stop-color:#000000"/>
			<stop  offset="1" style="stop-color:#FFFFFF"/>
		</radialGradient>
		<path clip-path="url(#SVGID_13_)" fill="url(#SVGID_14_)" d="M1421.325,654.997c0.723,0.077,2.947-60.244,4.967-78.988
			c2.019-18.744,3.067-34.002,2.343-34.081c-0.724-0.077-2.946,15.053-4.966,33.799
			C1421.651,594.471,1420.6,654.918,1421.325,654.997z"/>
	</g>
	<g opacity="0.43">
		<defs>
			<polygon id="SVGID_15_" opacity="0.43" points="1455.225,656.943 1447.038,540.851 1444.944,541.091 1453.127,657.183 			"/>
		</defs>
		<clipPath id="SVGID_16_">
			<use xlink:href="#SVGID_15_"  overflow="visible"/>
		</clipPath>
		
			<radialGradient id="SVGID_17_" cx="837.5374" cy="-1495.4272" r="7.2169" gradientTransform="matrix(1.149 9.9529 0.3845 -0.0442 1062.2612 -7803.3936)" gradientUnits="userSpaceOnUse">
			<stop  offset="0" style="stop-color:#000000"/>
			<stop  offset="1" style="stop-color:#FFFFFF"/>
		</radialGradient>
		<path clip-path="url(#SVGID_16_)" fill="url(#SVGID_17_)" d="M1452.9,655.201c0.724-0.083-0.442-60.521-2.604-79.251
			c-2.162-18.729-4.501-33.843-5.226-33.76c-0.725,0.081,0.442,15.331,2.604,34.062
			C1449.837,594.98,1452.176,655.284,1452.9,655.201z"/>
	</g>
	<g opacity="0.43">
		<defs>
			<polygon id="SVGID_18_" opacity="0.43" points="1471.141,656.745 1455.322,540.174 1453.261,540.629 1469.08,657.201 			"/>
		</defs>
		<clipPath id="SVGID_19_">
			<use xlink:href="#SVGID_18_"  overflow="visible"/>
		</clipPath>
		
			<radialGradient id="SVGID_20_" cx="830.7917" cy="-1377.4985" r="10.9084" gradientTransform="matrix(2.2209 10.0202 0.3779 -0.0833 137.1486 -7841.1133)" gradientUnits="userSpaceOnUse">
			<stop  offset="0" style="stop-color:#000000"/>
			<stop  offset="1" style="stop-color:#FFFFFF"/>
		</radialGradient>
		<path clip-path="url(#SVGID_19_)" fill="url(#SVGID_20_)" d="M1468.639,655.203c0.711-0.156-2.102-60.758-6.279-79.613
			c-4.18-18.854-8.143-34.013-8.854-33.855c-0.711,0.157,2.101,15.569,6.279,34.424
			C1463.964,595.014,1467.928,655.361,1468.639,655.203z"/>
	</g>
	<g opacity="0.43">
		<defs>
			<rect id="SVGID_21_" x="1428.929" y="397.107" opacity="0.43" width="1.95" height="143.556"/>
		</defs>
		<clipPath id="SVGID_22_">
			<use xlink:href="#SVGID_21_"  overflow="visible"/>
		</clipPath>
		
			<radialGradient id="SVGID_23_" cx="786.6125" cy="1749.2773" r="2.3147" gradientTransform="matrix(0 -29.6638 0.5265 0 507.935 23803.6895)" gradientUnits="userSpaceOnUse">
			<stop  offset="0" style="stop-color:#000000"/>
			<stop  offset="1" style="stop-color:#FFFFFF"/>
		</radialGradient>
		<path clip-path="url(#SVGID_22_)" fill="url(#SVGID_23_)" d="M1428.929,401.119c0.674,0,1.219,30.736,1.219,68.659
			c0,37.92-0.545,68.661-1.219,68.661c-0.673,0-1.219-30.741-1.219-68.661C1427.71,431.855,1428.256,401.119,1428.929,401.119z"/>
	</g>
	<g opacity="0.43">
		<defs>
			<rect id="SVGID_24_" x="1437.124" y="320.256" opacity="0.43" width="2.369" height="220.567"/>
		</defs>
		<clipPath id="SVGID_25_">
			<use xlink:href="#SVGID_24_"  overflow="visible"/>
		</clipPath>
		
			<radialGradient id="SVGID_26_" cx="788.8665" cy="2076.6211" r="4.3845" gradientTransform="matrix(0 -24.0633 0.3377 0 735.8499 19414.6699)" gradientUnits="userSpaceOnUse">
			<stop  offset="0" style="stop-color:#000000"/>
			<stop  offset="1" style="stop-color:#FFFFFF"/>
		</radialGradient>
		<path clip-path="url(#SVGID_25_)" fill="url(#SVGID_26_)" d="M1437.124,326.424c0.817,0,1.481,47.23,1.481,105.489
			c0,58.265-0.664,105.496-1.481,105.496c-0.816,0-1.48-47.231-1.48-105.496C1435.644,373.654,1436.308,326.424,1437.124,326.424z"
			/>
	</g>
	<g opacity="0.43">
		<defs>
			<rect id="SVGID_27_" x="1445.25" y="449.215" opacity="0.43" width="2.254" height="91.726"/>
		</defs>
		<clipPath id="SVGID_28_">
			<use xlink:href="#SVGID_27_"  overflow="visible"/>
		</clipPath>
		
			<radialGradient id="SVGID_29_" cx="756.2083" cy="1892.5029" r="3.5457" gradientTransform="matrix(0 -12.3706 0.3972 0 693.5474 9850.3945)" gradientUnits="userSpaceOnUse">
			<stop  offset="0" style="stop-color:#000000"/>
			<stop  offset="1" style="stop-color:#FFFFFF"/>
		</radialGradient>
		<path clip-path="url(#SVGID_28_)" fill="url(#SVGID_29_)" d="M1445.25,451.779c0.777,0,1.407,19.638,1.407,43.87
			c0,24.228-0.63,43.87-1.407,43.87s-1.409-19.643-1.409-43.87C1443.841,471.417,1444.473,451.779,1445.25,451.779z"/>
	</g>
	<g opacity="0.43">
		<defs>
			<rect id="SVGID_30_" x="1453.491" y="448.955" opacity="0.43" width="1.587" height="91.985"/>
		</defs>
		<clipPath id="SVGID_31_">
			<use xlink:href="#SVGID_30_"  overflow="visible"/>
		</clipPath>
		
			<radialGradient id="SVGID_32_" cx="750.9519" cy="2075.3457" r="3.5457" gradientTransform="matrix(0 -12.4059 0.2795 0 873.4324 9811.7578)" gradientUnits="userSpaceOnUse">
			<stop  offset="0" style="stop-color:#000000"/>
			<stop  offset="1" style="stop-color:#FFFFFF"/>
		</radialGradient>
		<path clip-path="url(#SVGID_31_)" fill="url(#SVGID_32_)" d="M1453.491,451.524c0.549,0,0.991,19.698,0.991,43.996
			c0,24.296-0.442,43.998-0.991,43.998c-0.546,0-0.99-19.702-0.99-43.998C1452.501,471.223,1452.946,451.524,1453.491,451.524z"/>
	</g>
</g>
</svg>
