<svg xmlns="http://www.w3.org/2000/svg" viewBox="0 0 23.23 50"><defs><style>.cls-1{fill:#fff;fill-rule:evenodd;}</style></defs><title>Ресурс 4f</title><g id="Слой_2" data-name="Слой 2"><g id="Layer_1" data-name="Layer 1"><path class="cls-1" d="M5.12,25.2V49.37a.63.63,0,0,0,.63.63h9a.63.63,0,0,0,.63-.63V24.8h6.51a.63.63,0,0,0,.63-.58l.63-7.4a.63.63,0,0,0-.63-.68H15.35V10.89a2.23,2.23,0,0,1,2.23-2.23h5A.63.63,0,0,0,23.23,8V.63A.63.63,0,0,0,22.6,0H14.12a9,9,0,0,0-9,9v7.14H.63a.63.63,0,0,0-.63.63v7.4a.63.63,0,0,0,.63.63H5.12Z"/></g></g></svg>