<svg xmlns="http://www.w3.org/2000/svg" viewBox="0 0 47.09 42.88"><defs><style>.cls-1{fill:#fff;}</style></defs><title>Ресурс 2h</title><g id="Слой_2" data-name="Слой 2"><g id="Layer_1" data-name="Layer 1"><path class="cls-1" d="M36.33.26c-5.19-.79-10.8,2-12.61,6.87a11.1,11.1,0,0,0-5-5.52A12,12,0,0,0,7.57,1.18C4.54,2.46,2.16,5.81.9,8.73c-1.59,3.69-.79,8.2.2,11.94a.56.56,0,0,0,1.08-.3C.53,14.13.8,7.25,6.49,3.08c2.67-2,7.26-2.65,10.23-1.29s6.2,4.2,6.44,7.83a.56.56,0,0,0,1.12,0C24.86,3,33-.59,38.74,2.12c6.08,2.88,8.64,11,6.64,17.22-1.26,3.9-6.27,2.93-9.57,3-1.87,0-3.74,0-5.61,0-.25,0-1.29,0-1.26,0a15.07,15.07,0,0,1-1.23-2.87.56.56,0,0,0-1.1.15c-.37,2.9-1.13,5.71-1.72,8.56-.58-4.79-.82-9.62-1.62-14.39-.09-.55-1-.51-1.08,0l-2.31,10-1-4.63c-.11-.51-1-.55-1.08,0-.12.77-.31,2.85-.83,3.22-.35.25-1.69,0-2.15,0l-6.08,0c-2.22,0-5.7-.46-5.6,2.87.05,1.74,1.66,3.51,2.69,4.79A30.83,30.83,0,0,0,11,34.89c3.86,3,8.17,5.36,12.34,7.91a.57.57,0,0,0,.56,0,61.82,61.82,0,0,0,19-16.2c.44-.56-.34-1.35-.79-.79A58.62,58.62,0,0,1,29.94,37.73c-1.5,1-4.77,4-6.64,3.76-.88-.12-2.08-1.24-2.85-1.69-1.17-.69-2.34-1.39-3.5-2.12a52.69,52.69,0,0,1-7.27-5.3c-1.34-1.2-8-7.62-3.63-9,1.67-.52,4.39,0,6.14,0l5.2,0a.57.57,0,0,0,.54-.41c.13-.43.25-.84.37-1.27l1,4.65a.56.56,0,0,0,1.08,0l2.19-9.48c.63,5,.86,10,1.68,14.92.11.68,1,.42,1.1-.15.42-3.37,1.38-6.63,2-10a2.5,2.5,0,0,0,1.92,1.66c2.53.41,5.49,0,8,0,2.35,0,5.48.51,7.44-1.08,1.7-1.38,2-3.81,2.22-5.85C47.63,9.56,43.84,1.39,36.33.26Z"/></g></g></svg>