<svg xmlns="http://www.w3.org/2000/svg" viewBox="0 0 50 50"><defs><style>.cls-1{fill:#fff;}</style></defs><title>Ресурс 7i</title><g id="Слой_2" data-name="Слой 2"><g id="Layer_1" data-name="Layer 1"><circle class="cls-1" cx="38.24" cy="11.86" r="2.93"/><path class="cls-1" d="M25.21,12.69A12.31,12.31,0,1,0,37.52,25,12.33,12.33,0,0,0,25.21,12.69Zm0,20.2A7.89,7.89,0,1,1,33.09,25,7.9,7.9,0,0,1,25.21,32.89Z"/><path class="cls-1" d="M35,50H15A15,15,0,0,1,0,35V15A15,15,0,0,1,15,0H35A15,15,0,0,1,50,15V35A15,15,0,0,1,35,50ZM15,4.7A10.33,10.33,0,0,0,4.7,15V35A10.33,10.33,0,0,0,15,45.3H35A10.33,10.33,0,0,0,45.3,35V15A10.33,10.33,0,0,0,35,4.7Z"/></g></g></svg>