<svg xmlns="http://www.w3.org/2000/svg" viewBox="0 0 19.26 25.86"><defs><style>.cls-1{fill:#fff;}</style></defs><title>Ресурс 1е</title><g id="Слой_2" data-name="Слой 2"><g id="Layer_1" data-name="Layer 1"><path class="cls-1" d="M18.21,20.08c-2.6-3.32-3.79-2.26-5.58-1.15-1.25.78-3.32-1.94-5-4.67s-3.22-5.79-2-6.56C7.43,6.59,8.9,6,7.08,2.19S3,.45,1.23,1.53c-2,1.24-1.87,7.65,2.71,15s10.23,10.19,12.27,9.07C18,24.64,20.81,23.4,18.21,20.08ZM4.37,3.39l-.2,0-.59.09-.33.09a1.74,1.74,0,0,0-.34.14A2,2,0,0,0,2.57,4a2.12,2.12,0,0,0-.29.34,2.44,2.44,0,0,0-.23.42c-.07.15-.11.31-.17.47a5.9,5.9,0,0,0-.16.91,6,6,0,0,0,0,.68V7l-.08-.25a6.15,6.15,0,0,1-.2-.66,6.34,6.34,0,0,1-.18-1c0-.19,0-.39,0-.6a3.42,3.42,0,0,1,.1-.64,3.29,3.29,0,0,1,.23-.64,3.4,3.4,0,0,1,.38-.57,3.19,3.19,0,0,1,.46-.46,4.64,4.64,0,0,1,.46-.33c.29-.18.53-.3.68-.38l.15-.09.05,0,.7,2ZM17,23.53c-.14.11-.36.28-.64.46a4.72,4.72,0,0,1-.49.27,3.78,3.78,0,0,1-.59.22,3.34,3.34,0,0,1-.66.12,3.15,3.15,0,0,1-.67,0l-.32-.05-.3-.09a3.74,3.74,0,0,1-.55-.22,5.3,5.3,0,0,1-.47-.26,4,4,0,0,1-.39-.27,5.3,5.3,0,0,1-.52-.44l-.19-.17a1.3,1.3,0,0,0,.34.26,5.17,5.17,0,0,0,.63.23,3.49,3.49,0,0,0,.42.11,4.64,4.64,0,0,0,.47.08,3,3,0,0,0,.49,0l.24,0,.23,0a2.23,2.23,0,0,0,1.28-.89c.13-.18.24-.35.31-.47l.13-.21,1.44,1.25Z"/></g></g></svg>