<svg xmlns="http://www.w3.org/2000/svg" xmlns:xlink="http://www.w3.org/1999/xlink" viewBox="0 0 63.56 79.92"><defs><style>.cls-1{fill:url(#linear-gradient);}.cls-2{fill:url(#linear-gradient-2);}.cls-3{fill:url(#linear-gradient-3);}.cls-4{fill:#fff;}.cls-5{fill:url(#linear-gradient-4);}</style><linearGradient id="linear-gradient" x1="31.87" y1="19.13" x2="31.41" y2="81.76" gradientUnits="userSpaceOnUse"><stop offset="0" stop-color="#f74440"/><stop offset="0.32" stop-color="#f96a3a"/><stop offset="1" stop-color="#ffc52a"/></linearGradient><linearGradient id="linear-gradient-2" x1="31.87" y1="18.7" x2="31.42" y2="79.96" gradientUnits="userSpaceOnUse"><stop offset="0" stop-color="#f74440"/><stop offset="0.17" stop-color="#f7483f"/><stop offset="0.35" stop-color="#f8553d"/><stop offset="0.53" stop-color="#f96a39"/><stop offset="0.71" stop-color="#fb8834"/><stop offset="0.9" stop-color="#feae2e"/><stop offset="1" stop-color="#ffc52a"/></linearGradient><linearGradient id="linear-gradient-3" x1="23.65" y1="9.89" x2="40.4" y2="53.56" gradientUnits="userSpaceOnUse"><stop offset="0.22" stop-color="#f9623b"/><stop offset="0.66" stop-color="#fd9c31"/><stop offset="1" stop-color="#ffc52a"/></linearGradient><linearGradient id="linear-gradient-4" x1="20.65" y1="32.07" x2="42.91" y2="32.07" gradientUnits="userSpaceOnUse"><stop offset="0" stop-color="#f74440"/><stop offset="0.32" stop-color="#f74741"/><stop offset="0.57" stop-color="#f95144"/><stop offset="0.79" stop-color="#fb614a"/><stop offset="0.99" stop-color="#ff7852"/><stop offset="1" stop-color="#ff7952"/></linearGradient></defs><title>Ресурс 31</title><g id="Слой_2" data-name="Слой 2"><g id="Layer_1" data-name="Layer 1"><path class="cls-1" d="M63.56,31.78c0,20-21.62,40.55-29.2,47.15a4,4,0,0,1-5.22.05C21.52,72.61,0,52.75,0,31.78a31.78,31.78,0,0,1,63.56,0Z"/><path class="cls-2" d="M61.69,31.13c0,19.36-19.94,39.32-27.26,46a4,4,0,0,1-5.35.06c-7.36-6.44-27.2-25.71-27.2-46C1.87,13.94,15.54,0,31.78,0S61.69,13.94,61.69,31.13Z"/><circle class="cls-3" cx="31.75" cy="30.99" r="23.38"/><circle class="cls-4" cx="31.75" cy="30.99" r="19.73"/><path class="cls-5" d="M39.45,24.34a6,6,0,0,0-7.69,2.31,6,6,0,0,0-10.5,5.81c1.21,2.47,7.7,6.44,9.88,7.72a1.4,1.4,0,0,0,1.43,0c2.17-1.31,8.59-5.35,9.76-7.84A6,6,0,0,0,39.45,24.34Z"/></g></g></svg>